<svg xmlns="http://www.w3.org/2000/svg" viewBox="0 0 640 47.42"><path d="M0,44.84V26.17c3.83-2.51,9.08-6.07,19.6-6.07a38.22,38.22,0,0,1,4.66.28c6.93.82,11.12,3.34,14.83,5.56a38.54,38.54,0,0,0,4.57,2.48,16.62,16.62,0,0,0,6.74,1.44c6.12,0,12.61-3.35,20.12-7.24C79.66,17.89,90,12.53,103.45,11a56.54,56.54,0,0,1,6.24-.36c11.26,0,18.32,3.78,25.14,7.44,7.26,3.89,14.12,7.56,27,7.56h1c14-.22,21.49-4.54,30.15-9.54,7.9-4.56,16.84-9.73,31.47-12.07a73.46,73.46,0,0,1,11.76-1c12.83,0,22.1,4,31.92,8.15s20.9,8.93,38.41,11.15a115.36,115.36,0,0,0,14.59,1c16.4,0,26.64-4.18,37.49-8.61,11.1-4.54,22.59-9.22,40.47-9.22a118.83,118.83,0,0,1,13.73.84C432,8.6,446.71,14.25,459.7,19.24c11.84,4.54,22.06,8.47,32.46,8.47a42.26,42.26,0,0,0,16.28-3.33,37.38,37.38,0,0,0,12.5-8.2,54.18,54.18,0,0,1,13.15-9.31A68,68,0,0,1,564.92,0c21.53,0,45.2,9.83,75.08,26.17" fill="silver"></path><path d="M0,44.87V26.23c3.81-2.5,9.08-6.07,19.6-6.07a38.06,38.06,0,0,1,4.65.28c6.93.82,11.12,3.34,14.83,5.57,1,.61,2,1.21,3,1.73.51.27,1,.52,1.54.74a16.7,16.7,0,0,0,6.75,1.44c6.12,0,12.61-3.35,20.12-7.23C79.67,18,90,12.59,103.45,11.1a56.86,56.86,0,0,1,6.25-.36c11.25,0,18.3,3.79,25.14,7.45,7.25,3.89,14.12,7.56,27,7.55h1.05c14-.22,21.49-4.54,30.15-9.54,7.89-4.56,16.83-9.73,31.46-12.07a73.25,73.25,0,0,1,11.75-1c12.81,0,22.07,4,31.89,8.14s20.88,8.92,38.36,11.15c2.17.28,4.3.5,6.37.66q4.27.33,8.21.33c16.39,0,26.63-4.14,37.46-8.55,11.12-4.53,22.58-9.23,40.41-9.26a118.65,118.65,0,0,1,13.73.82,144.6,144.6,0,0,1,16.34,2.85c11.55,2.72,21.4,6.49,30.41,9.94,11.83,4.54,22,8.46,32.42,8.5a42.23,42.23,0,0,0,16.26-3.25,37.39,37.39,0,0,0,12.51-8.1,57.49,57.49,0,0,1,10.81-8c.74-.41,1.52-.83,2.36-1.25a68.69,68.69,0,0,1,30.74-7C586.08,0,609.83,9.71,640,26.21v.21" fill="#c1c1c1"></path><path d="M0,44.9V26.29a31.64,31.64,0,0,1,19.6-6.07,38.06,38.06,0,0,1,4.65.28c6.92.82,11.11,3.35,14.82,5.57,1,.62,2,1.21,3,1.74.51.26,1,.51,1.55.74A16.78,16.78,0,0,0,50.4,30c6.13,0,12.62-3.34,20.12-7.22C79.67,18,90,12.65,103.46,11.16a56.86,56.86,0,0,1,6.25-.36c11.24,0,18.29,3.79,25.13,7.46,7.25,3.88,14.13,7.55,27.06,7.54h1c14-.21,21.5-4.53,30.15-9.53,7.9-4.56,16.83-9.73,31.46-12.07a73.2,73.2,0,0,1,11.73-1c12.8,0,22,3.94,31.86,8.13S289,20.24,306.48,22.48q3.24.42,6.36.66c2.84.22,5.58.34,8.2.34,16.37,0,26.62-4.11,37.43-8.5,11.13-4.52,22.57-9.24,40.36-9.3a118.13,118.13,0,0,1,13.71.8,143.07,143.07,0,0,1,16.33,2.83c11.54,2.7,21.39,6.45,30.39,9.9,11.81,4.52,22,8.45,32.38,8.52a42.42,42.42,0,0,0,16.24-3.16,37.88,37.88,0,0,0,12.53-8,58,58,0,0,1,10.82-7.94c.74-.41,1.52-.83,2.35-1.25A69.3,69.3,0,0,1,564.24.27c21.46-.22,45.3,9.32,75.76,26v.43" fill="#c2c2c2"></path><path d="M0,44.93V26.34a31.75,31.75,0,0,1,19.6-6.06,40.11,40.11,0,0,1,4.64.27c6.93.83,11.11,3.36,14.83,5.59,1,.61,2,1.2,3,1.73.51.27,1,.51,1.54.74A16.85,16.85,0,0,0,50.39,30C56.53,30,63,26.7,70.52,22.82c9.16-4.73,19.53-10.11,33-11.6a56.54,56.54,0,0,1,6.24-.36c11.25,0,18.28,3.8,25.14,7.47,7.24,3.88,14.13,7.54,27.06,7.53H163c14-.22,21.5-4.53,30.15-9.53,7.9-4.56,16.83-9.73,31.46-12.07a73,73,0,0,1,11.72-1c12.79,0,22,3.94,31.83,8.12S289,20.29,306.4,22.53q3.24.42,6.36.66c2.84.23,5.57.34,8.19.35,16.36,0,26.61-4.07,37.4-8.45,11.14-4.52,22.56-9.25,40.31-9.33a115.66,115.66,0,0,1,13.7.77,141.38,141.38,0,0,1,16.31,2.81C440.2,12,450,15.75,459,19.19c11.8,4.51,22,8.44,32.34,8.54a42.53,42.53,0,0,0,16.22-3.07,38.06,38.06,0,0,0,12.54-7.91A59.76,59.76,0,0,1,531,8.87c.75-.42,1.53-.83,2.36-1.25A69.86,69.86,0,0,1,563.91.4C585.33.08,609.26,9.46,640,26.27v.65" fill="#c3c3c2"></path><path d="M0,45V26.4a31.78,31.78,0,0,1,19.61-6.06,39.76,39.76,0,0,1,4.62.27c6.93.83,11.1,3.36,14.83,5.59,1,.62,2,1.21,3,1.73.51.27,1,.52,1.55.74a16.85,16.85,0,0,0,6.75,1.43c6.15,0,12.64-3.34,20.14-7.21,9.15-4.73,19.52-10.12,32.94-11.61a56.86,56.86,0,0,1,6.25-.36c11.24,0,18.27,3.81,25.13,7.48,7.24,3.87,14.14,7.53,27.08,7.52h1c14-.22,21.51-4.54,30.15-9.52C201,11.82,210,6.65,224.58,4.31a72.86,72.86,0,0,1,11.71-1c12.77,0,22,3.93,31.79,8.11s20.83,8.9,38.25,11.15c2.15.28,4.27.5,6.34.66,2.84.23,5.58.35,8.19.35,16.34.05,26.6-4,37.37-8.39,11.15-4.51,22.55-9.25,40.26-9.37a117.19,117.19,0,0,1,13.68.75,142.08,142.08,0,0,1,16.3,2.78C440,12,449.83,15.74,458.82,19.17c11.79,4.5,22,8.43,32.3,8.57a42.33,42.33,0,0,0,16.2-3A38.4,38.4,0,0,0,519.88,17a61.19,61.19,0,0,1,10.84-7.84c.75-.41,1.53-.82,2.36-1.24A70.29,70.29,0,0,1,563.57.54C585,.1,609,9.34,640,26.31v.86" fill="#c4c3c3"></path><path d="M0,45V26.46A31.78,31.78,0,0,1,19.61,20.4a39.59,39.59,0,0,1,4.61.27c6.94.83,11.1,3.37,14.83,5.6,1,.61,2,1.2,3,1.73.51.26,1,.51,1.54.73a16.9,16.9,0,0,0,6.76,1.43c6.15,0,12.64-3.33,20.14-7.21,9.16-4.73,19.53-10.12,33-11.61a54.49,54.49,0,0,1,6.25-.36C121,11,128,14.79,134.85,18.47,142.09,22.34,149,26,161.94,26H163c14-.22,21.51-4.54,30.14-9.52,7.92-4.57,16.83-9.74,31.46-12.08a72.84,72.84,0,0,1,11.7-1c12.75,0,22,3.92,31.76,8.1s20.81,8.9,38.2,11.15c2.15.28,4.27.5,6.34.66q4.26.34,8.18.36c16.32.06,26.59-4,37.34-8.34,11.17-4.51,22.55-9.26,40.21-9.41A119.3,119.3,0,0,1,412,6.63a140.39,140.39,0,0,1,16.28,2.76c11.52,2.64,21.34,6.35,30.33,9.77,11.77,4.48,21.94,8.41,32.26,8.59A42.31,42.31,0,0,0,507,24.84a38.31,38.31,0,0,0,12.57-7.7,62.73,62.73,0,0,1,10.86-7.78c.75-.41,1.53-.82,2.35-1.24A70.82,70.82,0,0,1,563.23.67C584.59.07,608.68,9.22,640,26.34v1.08" fill="#c4c4c4"></path><path d="M0,45V26.52a31.82,31.82,0,0,1,19.61-6.06,39.59,39.59,0,0,1,4.61.27c6.93.83,11.09,3.37,14.83,5.6,1,.62,2,1.21,3,1.73.51.26,1,.51,1.55.74a17,17,0,0,0,6.75,1.42c6.17,0,12.66-3.33,20.15-7.2,9.16-4.73,19.53-10.13,33-11.62a52.27,52.27,0,0,1,6.24-.36c11.24,0,18.25,3.82,25.13,7.5C142.09,22.41,149,26.06,162,26H163c14-.23,21.52-4.54,30.15-9.52C201.06,11.94,210,6.77,224.6,4.43a72.6,72.6,0,0,1,11.68-1c12.74,0,21.94,3.91,31.74,8.09s20.79,8.89,38.16,11.15c2.14.28,4.26.5,6.33.67,2.83.22,5.56.34,8.17.36,16.31.07,26.58-4,37.31-8.29,11.18-4.5,22.54-9.27,40.16-9.44a114.34,114.34,0,0,1,13.65.7,143.25,143.25,0,0,1,16.27,2.73c11.51,2.63,21.33,6.32,30.31,9.73,11.76,4.47,21.92,8.41,32.22,8.62a42.56,42.56,0,0,0,16.17-2.82,38.71,38.71,0,0,0,12.58-7.61,64.37,64.37,0,0,1,10.87-7.72c.75-.41,1.53-.83,2.35-1.24A71.28,71.28,0,0,1,562.9.81C584.21.09,608.39,9.1,640,26.38v1.29" fill="#c5c5c5"></path><path d="M0,45.05V26.58a31.83,31.83,0,0,1,19.61-6.06,39.42,39.42,0,0,1,4.6.27c6.93.83,11.09,3.37,14.83,5.61,1,.61,2,1.2,3,1.73.51.26,1,.5,1.55.73a16.84,16.84,0,0,0,6.75,1.42c6.17,0,12.66-3.32,20.15-7.19,9.16-4.74,19.54-10.14,33-11.64a54.42,54.42,0,0,1,6.25-.35c11.23,0,18.24,3.83,25.12,7.51C142.09,22.47,149,26.12,162,26.1h1c14-.23,21.52-4.54,30.15-9.52C201.08,12,210,6.83,224.61,4.48a73.58,73.58,0,0,1,11.67-1c12.73,0,21.91,3.91,31.7,8.08s20.78,8.89,38.12,11.15q3.22.42,6.33.67c2.82.23,5.55.35,8.16.36,16.29.09,26.56-3.92,37.28-8.23C369.06,11,380.4,6.26,398,6.05a116.13,116.13,0,0,1,13.64.68,141.5,141.5,0,0,1,16.25,2.71c11.5,2.61,21.31,6.28,30.29,9.68,11.75,4.46,21.9,8.4,32.17,8.65A42.54,42.54,0,0,0,506.49,25a38.89,38.89,0,0,0,12.59-7.51A66.84,66.84,0,0,1,530,9.85c.74-.41,1.53-.82,2.35-1.23A71.91,71.91,0,0,1,562.56.94C583.84.11,608.11,9,640,26.41v1.51" fill="#c6c6c5"></path><path d="M0,45.08V26.63a32,32,0,0,1,19.62-6.05,39.08,39.08,0,0,1,4.58.27c6.94.83,11.09,3.38,14.83,5.61,1,.62,2,1.2,3,1.73.51.26,1,.51,1.55.73a16.88,16.88,0,0,0,6.76,1.42c6.18,0,12.67-3.32,20.16-7.19,9.16-4.73,19.53-10.14,33-11.64a54.42,54.42,0,0,1,6.25-.35C121,11.17,128,15,134.87,18.68c7.22,3.86,14.16,7.5,27.11,7.48h1c14-.23,21.53-4.54,30.15-9.52C201.1,12.06,210,6.89,224.62,4.54a73.46,73.46,0,0,1,11.66-1c12.71,0,21.89,3.9,31.67,8.07S288.71,20.51,306,22.78c2.14.27,4.25.5,6.32.67q4.23.35,8.15.37c16.27.1,26.55-3.89,37.24-8.18,11.21-4.49,22.53-9.28,40.07-9.51a113.52,113.52,0,0,1,13.62.65,142.16,142.16,0,0,1,16.24,2.68c11.49,2.6,21.3,6.25,30.27,9.65,11.74,4.44,21.87,8.38,32.13,8.67a42.53,42.53,0,0,0,16.14-2.66,39.07,39.07,0,0,0,12.61-7.41,68.09,68.09,0,0,1,10.9-7.61c.74-.41,1.53-.82,2.35-1.23a72.56,72.56,0,0,1,30.16-7.8C583.47.12,607.82,8.85,640,26.45v1.72" fill="#c7c6c6"></path><path d="M0,45.11V26.69a32,32,0,0,1,19.62-6.05,39.08,39.08,0,0,1,4.58.27c6.93.83,11.07,3.38,14.83,5.62,1,.61,2,1.2,3,1.72.51.26,1,.51,1.55.73a16.87,16.87,0,0,0,6.75,1.42c6.19,0,12.69-3.32,20.17-7.18,9.16-4.74,19.54-10.15,33-11.65a54.67,54.67,0,0,1,6.25-.35c11.23,0,18.22,3.84,25.12,7.53C142.09,22.6,149,26.24,162,26.22h1c14-.23,21.53-4.54,30.14-9.52C201.11,12.12,210,6.94,224.63,4.6a73.34,73.34,0,0,1,11.65-1c12.69,0,21.86,3.89,31.63,8.06s20.75,8.88,38,11.14q3.21.42,6.31.68c2.82.23,5.55.36,8.15.38C336.67,24,347,20,357.62,15.75c11.23-4.49,22.53-9.29,40-9.55a115.12,115.12,0,0,1,13.6.63,140.24,140.24,0,0,1,16.23,2.66,218.54,218.54,0,0,1,30.25,9.6c11.72,4.44,21.85,8.38,32.09,8.7a42.53,42.53,0,0,0,16.12-2.58,39.37,39.37,0,0,0,12.62-7.31,70.56,70.56,0,0,1,10.91-7.55c.75-.41,1.53-.82,2.35-1.23a73.31,73.31,0,0,1,30.08-7.91C583.09.14,607.53,8.73,640,26.48v1.94" fill="#c7c7c7"></path><path d="M0,45.15V26.75A32,32,0,0,1,19.62,20.7a38.91,38.91,0,0,1,4.57.27c6.94.83,11.07,3.39,14.83,5.62,1,.62,2,1.2,3,1.73.51.26,1,.5,1.55.72a16.92,16.92,0,0,0,6.76,1.42c6.2,0,12.69-3.31,20.17-7.18,9.17-4.73,19.54-10.15,33-11.65a54.67,54.67,0,0,1,6.25-.35c11.22,0,18.2,3.85,25.11,7.54,7.22,3.85,14.19,7.48,27.14,7.46h1c14-.24,21.54-4.55,30.14-9.51C201.13,12.18,210,7,224.64,4.66a73.19,73.19,0,0,1,11.63-1c12.68,0,21.84,3.88,31.61,8.05s20.73,8.87,38,11.14q3.21.42,6.31.68c2.82.24,5.54.36,8.13.38,16.25.13,26.54-3.81,37.19-8.07,11.24-4.48,22.52-9.29,40-9.59a117,117,0,0,1,13.59.61,141,141,0,0,1,16.21,2.63c11.47,2.56,21.27,6.18,30.23,9.56,11.71,4.43,21.83,8.37,32.05,8.72a42.3,42.3,0,0,0,16.1-2.49,39.55,39.55,0,0,0,12.64-7.21,73.41,73.41,0,0,1,10.92-7.5c.75-.4,1.53-.81,2.35-1.22a74,74,0,0,1,30-8C582.72.15,607.24,8.61,640,26.51v2.16" fill="#c8c8c8"></path><path d="M0,45.18V26.81a32.05,32.05,0,0,1,19.62-6,38.62,38.62,0,0,1,4.56.27c6.94.83,11.07,3.39,14.83,5.63,1,.61,2,1.2,3.05,1.72.51.26,1,.51,1.55.73a17,17,0,0,0,6.76,1.41c6.2,0,12.7-3.31,20.17-7.17,9.17-4.74,19.55-10.16,33-11.66a54.42,54.42,0,0,1,6.25-.35c11.22,0,18.19,3.85,25.11,7.55,7.21,3.85,14.19,7.48,27.14,7.45h1c14-.24,21.54-4.55,30.15-9.51,7.93-4.58,16.81-9.76,31.44-12.1a73.07,73.07,0,0,1,11.62-1c12.66,0,21.81,3.87,31.57,8s20.71,8.87,38,11.14q3.19.42,6.3.68c2.81.24,5.53.37,8.12.39,16.24.14,26.53-3.77,37.16-8,11.25-4.48,22.51-9.3,39.92-9.62a112.11,112.11,0,0,1,13.57.58,143.87,143.87,0,0,1,16.2,2.61c11.47,2.54,21.26,6.15,30.21,9.52,11.7,4.41,21.8,8.35,32,8.74a42.69,42.69,0,0,0,16.08-2.4A39.74,39.74,0,0,0,518,18.28,75.69,75.69,0,0,1,529,10.84c.75-.41,1.53-.81,2.35-1.22a74.4,74.4,0,0,1,29.91-8.14C582.35.17,607,8.48,640,26.55v2.37" fill="#c9c9c9"></path><path d="M0,45.21V26.87a32.13,32.13,0,0,1,19.63-6.05,38.83,38.83,0,0,1,4.55.27c6.93.83,11.06,3.39,14.83,5.64,1,.6,2,1.19,3,1.71.51.26,1,.51,1.55.73a17.13,17.13,0,0,0,6.77,1.41c6.2,0,12.7-3.3,20.17-7.16,9.18-4.74,19.55-10.17,33-11.67a57.14,57.14,0,0,1,6.25-.36C121,11.41,128,15.26,134.88,19c7.2,3.84,14.2,7.47,27.15,7.44h1.05c14-.24,21.54-4.55,30.14-9.51,7.94-4.58,16.81-9.76,31.43-12.1a73.17,73.17,0,0,1,11.62-1c12.65,0,21.78,3.87,31.54,8S288.5,20.69,305.72,23q3.19.42,6.3.69c2.81.23,5.52.36,8.11.38,16.22.15,26.52-3.73,37.13-8,11.27-4.47,22.5-9.31,39.86-9.66A114.1,114.1,0,0,1,410.69,7a144.33,144.33,0,0,1,16.18,2.58c11.46,2.53,21.24,6.12,30.19,9.48,11.69,4.4,21.78,8.35,32,8.77a42.72,42.72,0,0,0,16.06-2.32,40.11,40.11,0,0,0,12.67-7,77.6,77.6,0,0,1,11-7.38c.75-.41,1.53-.81,2.35-1.22a75.13,75.13,0,0,1,29.82-8.26C582,.19,606.67,8.36,640,26.58v2.59" fill="#cacac9"></path><path d="M0,45.24V26.92a32.22,32.22,0,0,1,19.63-6,38.53,38.53,0,0,1,4.54.27c6.94.83,11,3.4,14.83,5.64,1,.61,2,1.2,3,1.72.51.26,1,.5,1.55.72a17.29,17.29,0,0,0,6.76,1.41c6.22,0,12.72-3.3,20.19-7.16,9.17-4.74,19.55-10.17,33-11.67a57.14,57.14,0,0,1,6.25-.36C121,11.48,128,15.33,134.89,19c7.19,3.85,14.2,7.47,27.16,7.44h1c14-.24,21.55-4.55,30.14-9.51,8-4.58,16.81-9.76,31.43-12.1a73,73,0,0,1,11.61-1c12.63,0,21.75,3.86,31.5,8S288.45,20.73,305.65,23c2.12.28,4.22.51,6.28.69,2.81.23,5.52.37,8.11.39,16.2.16,26.51-3.7,37.1-7.91C368.42,11.73,379.63,6.87,397,6.5A113.51,113.51,0,0,1,410.5,7a143.19,143.19,0,0,1,16.18,2.56A214.79,214.79,0,0,1,456.84,19c11.67,4.39,21.76,8.34,31.93,8.8a42.71,42.71,0,0,0,16-2.24,40.3,40.3,0,0,0,12.68-6.92,82,82,0,0,1,11-7.33c.75-.4,1.53-.81,2.34-1.21a76,76,0,0,1,29.74-8.37C581.6.21,606.38,8.24,640,26.62v2.8" fill="#cacaca"></path><path d="M0,45.27V27a32.26,32.26,0,0,1,19.63-6,38.36,38.36,0,0,1,4.53.27C31.1,22,35.21,24.61,39,26.86c1,.6,2,1.19,3,1.71.51.26,1,.5,1.55.72a17.3,17.3,0,0,0,6.77,1.41c6.22,0,12.72-3.3,20.19-7.15,9.17-4.74,19.55-10.18,33-11.68a57.14,57.14,0,0,1,6.25-.36c11.21,0,18.16,3.88,25.1,7.58,7.19,3.84,14.21,7.46,27.17,7.43h1c14-.25,21.56-4.55,30.14-9.51,7.95-4.58,16.81-9.76,31.43-12.1a72.9,72.9,0,0,1,11.59-1c12.62,0,21.73,3.85,31.48,8s20.66,8.85,37.83,11.14c2.12.28,4.22.51,6.28.69,2.81.24,5.52.37,8.1.4,16.19.17,26.5-3.66,37.07-7.87,11.29-4.45,22.49-9.31,39.76-9.72a113.17,113.17,0,0,1,13.54.51,141.35,141.35,0,0,1,16.16,2.54A212.06,212.06,0,0,1,456.62,19c11.66,4.37,21.74,8.32,31.88,8.82a42.75,42.75,0,0,0,16-2.16,40.47,40.47,0,0,0,12.7-6.82,82.27,82.27,0,0,1,11-7.27c.75-.4,1.53-.81,2.34-1.21,9.41-4.66,18.22-7.59,29.66-8.49C581.23.22,606.1,8.11,640,26.65v3" fill="#cbcbcb"></path><path d="M0,45.3V27a32.24,32.24,0,0,1,19.63-6,38.36,38.36,0,0,1,4.53.27c6.94.83,11,3.4,14.83,5.65,1,.61,2,1.19,3,1.71.51.26,1,.51,1.55.73a17.47,17.47,0,0,0,6.77,1.4c6.23,0,12.73-3.29,20.19-7.15,9.18-4.74,19.56-10.18,33-11.68a57.28,57.28,0,0,1,6.25-.36c11.21,0,18.15,3.89,25.1,7.59,7.19,3.84,14.22,7.45,27.18,7.42h1c14-.25,21.56-4.55,30.15-9.5,8-4.59,16.8-9.77,31.42-12.11a72.78,72.78,0,0,1,11.58-1c12.6,0,21.7,3.84,31.44,8s20.65,8.84,37.8,11.14q3.17.42,6.27.69c2.8.24,5.51.37,8.09.4,16.17.19,26.48-3.62,37-7.81,11.3-4.44,22.48-9.32,39.71-9.76a114.86,114.86,0,0,1,13.52.49,141.93,141.93,0,0,1,16.15,2.51A210.5,210.5,0,0,1,456.39,19c11.66,4.36,21.72,8.32,31.85,8.85a43,43,0,0,0,16-2.07A40.72,40.72,0,0,0,517,19a86.73,86.73,0,0,1,11-7.21c.76-.41,1.54-.81,2.35-1.21C539.73,6,548.43,3,559.87,2c21-1.78,45.94,6,80.13,24.67v3.23" fill="#ccc"></path><path d="M0,45.33V27.1a32.26,32.26,0,0,1,19.64-6,38,38,0,0,1,4.51.27c6.94.83,11,3.41,14.83,5.66,1,.6,2,1.19,3.05,1.71.51.26,1,.5,1.55.72a17.54,17.54,0,0,0,6.77,1.4c6.24,0,12.74-3.29,20.2-7.14,9.18-4.74,19.57-10.19,33-11.69a57.14,57.14,0,0,1,6.25-.36c11.21,0,18.14,3.9,25.1,7.6,7.18,3.84,14.22,7.45,27.19,7.41h1c14-.25,21.56-4.55,30.14-9.5,8-4.59,16.8-9.77,31.42-12.11a72.66,72.66,0,0,1,11.57-1c12.58,0,21.67,3.84,31.41,8s20.63,8.84,37.75,11.14q3.16.42,6.27.69c2.8.24,5.5.38,8.08.41,16.15.2,26.47-3.59,37-7.76,11.32-4.44,22.47-9.33,39.66-9.79A110.36,110.36,0,0,1,410,7.18a142.3,142.3,0,0,1,16.13,2.49A209.11,209.11,0,0,1,456.17,19c11.64,4.34,21.7,8.3,31.81,8.87a43.05,43.05,0,0,0,16-2,41,41,0,0,0,12.72-6.63,91.23,91.23,0,0,1,11-7.16q1.13-.6,2.34-1.2c9.46-4.68,18-7.69,29.5-8.72,20.94-1.89,46,5.72,80.46,24.57v3.45" fill="#cdcdcc"></path><path d="M0,45.36V27.15a32.38,32.38,0,0,1,19.64-6,37.86,37.86,0,0,1,4.5.27c6.94.83,11,3.41,14.84,5.66,1,.61,2,1.19,3,1.71.52.26,1,.5,1.56.72a17.51,17.51,0,0,0,6.77,1.4c6.25,0,12.75-3.28,20.2-7.13,9.19-4.75,19.57-10.2,33-11.7a57.14,57.14,0,0,1,6.25-.36c11.2,0,18.12,3.9,25.09,7.61,7.18,3.83,14.23,7.44,27.2,7.4h1c14-.25,21.57-4.56,30.14-9.5,8-4.59,16.8-9.77,31.42-12.12a73.56,73.56,0,0,1,11.56-1c12.57,0,21.64,3.83,31.38,8s20.6,8.82,37.71,11.13c2.1.28,4.19.51,6.25.69,2.8.25,5.5.38,8.08.42,16.14.21,26.46-3.55,37-7.71,11.33-4.43,22.46-9.33,39.61-9.83a109.87,109.87,0,0,1,13.49.44,140.63,140.63,0,0,1,16.12,2.46A209.38,209.38,0,0,1,456,19c11.63,4.34,21.68,8.29,31.77,8.89a42.87,42.87,0,0,0,16-1.9,41.18,41.18,0,0,0,12.73-6.53,93.1,93.1,0,0,1,11-7.1q1.13-.6,2.34-1.2c9.48-4.68,18-7.74,29.41-8.84,20.91-2,46,5.47,80.8,24.47v3.67" fill="#cdcdcd"></path><path d="M0,45.39V27.21a32.48,32.48,0,0,1,19.64-6,39.79,39.79,0,0,1,4.49.28c7,.82,11,3.41,14.84,5.67,1,.6,2,1.19,3.05,1.7q.76.39,1.56.72a17.47,17.47,0,0,0,6.77,1.4c6.25,0,12.75-3.28,20.21-7.13,9.18-4.74,19.57-10.21,33-11.7a57.46,57.46,0,0,1,6.26-.36c11.19,0,18.11,3.91,25.09,7.62,7.17,3.83,14.23,7.43,27.2,7.39h1c14-.26,21.58-4.56,30.14-9.5,8-4.59,16.8-9.77,31.42-12.12a72.24,72.24,0,0,1,11.54-1c12.56,0,21.62,3.82,31.35,8S288.19,21,305.27,23.27c2.1.28,4.19.51,6.25.69q4.2.38,8.07.42c16.12.23,26.45-3.51,37-7.65C367.88,12.3,379,7.39,396.1,6.87a109.45,109.45,0,0,1,13.48.41,138.79,138.79,0,0,1,16.1,2.44,207.66,207.66,0,0,1,30.05,9.22c11.62,4.33,21.65,8.29,31.73,8.92a43.13,43.13,0,0,0,16-1.82,41.34,41.34,0,0,0,12.75-6.43,95.68,95.68,0,0,1,11-7q1.13-.6,2.34-1.2c9.5-4.69,17.86-7.79,29.32-8.95C579.73.3,605,7.62,640,26.79v3.88" fill="#cecece"></path><path d="M0,45.42V27.27a32.52,32.52,0,0,1,19.64-6,42.42,42.42,0,0,1,4.49.27c6.94.83,11,3.43,14.83,5.68,1,.61,2,1.19,3,1.71q.78.39,1.56.72A17.71,17.71,0,0,0,50.34,31c6.27,0,12.77-3.28,20.22-7.12,9.19-4.75,19.57-10.22,33-11.71a57.28,57.28,0,0,1,6.25-.36c11.2,0,18.11,3.91,25.09,7.63,7.17,3.82,14.24,7.42,27.22,7.38h1c14-.26,21.58-4.56,30.14-9.5,8-4.59,16.8-9.78,31.42-12.12a72.21,72.21,0,0,1,11.53-1c12.54,0,21.59,3.81,31.32,8S288.14,21,305.19,23.32c2.1.28,4.19.51,6.25.7,2.79.24,5.49.38,8.06.42,16.11.24,26.44-3.48,36.92-7.6,11.35-4.42,22.45-9.35,39.51-9.9a109,109,0,0,1,13.46.39,139.3,139.3,0,0,1,16.09,2.41,206.25,206.25,0,0,1,30,9.19c11.61,4.31,21.63,8.27,31.69,8.94a43.35,43.35,0,0,0,15.94-1.73A41.53,41.53,0,0,0,515.9,19.8a104.12,104.12,0,0,1,11.05-7c.75-.4,1.53-.79,2.34-1.19,9.53-4.7,17.77-7.84,29.24-9.07C579.36.32,604.66,7.5,640,26.82v4.1" fill="#cfcfcf"></path><path d="M0,45.45V27.33a32.57,32.57,0,0,1,19.65-6,42.2,42.2,0,0,1,4.47.27c7,.83,11,3.43,14.84,5.69,1,.6,2,1.18,3,1.7q.77.39,1.56.72a17.68,17.68,0,0,0,6.77,1.39c6.27,0,12.77-3.27,20.22-7.12,9.19-4.74,19.58-10.22,33-11.71a54.75,54.75,0,0,1,6.25-.36c11.19,0,18.09,3.92,25.08,7.64,7.17,3.82,14.25,7.41,27.23,7.37h1c14-.26,21.58-4.56,30.14-9.5,8-4.6,16.79-9.78,31.41-12.12a72,72,0,0,1,11.52-1c12.52,0,21.56,3.8,31.28,8s20.56,8.81,37.59,11.13c2.09.28,4.18.52,6.24.7,2.79.24,5.48.39,8.05.43,16.09.25,26.43-3.44,36.89-7.55C367.67,12.53,378.74,7.6,395.76,7a108.75,108.75,0,0,1,13.45.37,137.47,137.47,0,0,1,16.07,2.39,204.1,204.1,0,0,1,30,9.14c11.59,4.3,21.61,8.24,31.65,9a43.61,43.61,0,0,0,15.92-1.65A41.91,41.91,0,0,0,515.64,20a107.4,107.4,0,0,1,11.06-6.93c.75-.4,1.53-.79,2.33-1.19,9.56-4.71,17.69-7.89,29.16-9.18C579,.34,604.37,7.38,640,26.86v4.31" fill="#d0d0cf"></path><path d="M0,45.48V27.39a32.62,32.62,0,0,1,19.65-6,39.53,39.53,0,0,1,4.46.27c7,.83,11,3.43,14.84,5.69,1,.61,2,1.19,3,1.71.52.25,1,.49,1.56.71a17.76,17.76,0,0,0,6.78,1.39c6.28,0,12.78-3.27,20.22-7.11,9.19-4.74,19.58-10.23,33-11.72a55.05,55.05,0,0,1,6.26-.36c11.19,0,18.08,3.93,25.08,7.65,7.16,3.82,14.25,7.41,27.23,7.36l1,0c14-.26,21.59-4.55,30.14-9.48,8-4.61,16.79-9.79,31.41-12.13a71.88,71.88,0,0,1,11.51-1c12.51,0,21.53,3.8,31.25,8S288,21.09,305,23.41c2.1.29,4.17.53,6.23.71,2.79.25,5.48.39,8,.43,16.08.26,26.43-3.4,36.87-7.49,11.38-4.41,22.43-9.36,39.41-10A106.22,106.22,0,0,1,409,7.43a140.11,140.11,0,0,1,16.06,2.36,204,204,0,0,1,30,9.1c11.58,4.29,21.58,8.23,31.61,9a43.66,43.66,0,0,0,15.9-1.57,42.11,42.11,0,0,0,12.79-6.14,112.08,112.08,0,0,1,11.07-6.87c.76-.4,1.54-.8,2.34-1.19,9.58-4.71,17.6-7.94,29.07-9.3C578.61.36,604.08,7.26,640,26.89v4.53" fill="#d1d0d0"></path><path d="M0,45.51V27.44a32.71,32.71,0,0,1,19.65-6,39.53,39.53,0,0,1,4.46.27c6.94.83,11,3.44,14.83,5.7,1,.6,2,1.18,3.06,1.7.51.26,1,.5,1.56.71a17.71,17.71,0,0,0,6.77,1.39c6.29,0,12.8-3.26,20.23-7.1,9.2-4.75,19.59-10.24,33-11.73a54.88,54.88,0,0,1,6.25-.36c11.19,0,18.07,3.93,25.08,7.66,7.16,3.81,14.26,7.4,27.25,7.35l1,0c14-.26,21.6-4.55,30.14-9.48,8-4.61,16.79-9.79,31.41-12.13a71.83,71.83,0,0,1,11.49-1c12.5,0,21.51,3.79,31.22,7.94S288,21.13,305,23.46q3.13.43,6.22.71,4.19.38,8,.44c16.07.27,26.41-3.36,36.84-7.44,11.39-4.41,22.42-9.37,39.36-10a107.89,107.89,0,0,1,13.42.32,138.23,138.23,0,0,1,16,2.34,203,203,0,0,1,30,9.06c11.57,4.27,21.56,8.22,31.56,9a43.73,43.73,0,0,0,15.89-1.49,42.26,42.26,0,0,0,12.81-6,119.93,119.93,0,0,1,11.08-6.82c.76-.39,1.54-.79,2.34-1.18,9.6-4.72,17.51-8,29-9.41C578.24.38,603.8,7.13,640,26.93v4.74" fill="#d1d1d1"></path><path d="M0,45.54v-18a32.75,32.75,0,0,1,19.65-6,39.35,39.35,0,0,1,4.45.27c7,.83,11,3.44,14.84,5.7,1,.61,2,1.19,3.05,1.7.52.26,1,.5,1.56.71a17.76,17.76,0,0,0,6.78,1.39c6.3,0,12.8-3.26,20.24-7.1,9.19-4.74,19.58-10.24,33-11.73a54.88,54.88,0,0,1,6.25-.36c11.18,0,18.06,3.94,25.08,7.67s14.26,7.39,27.25,7.34l1,0c14-.26,21.6-4.56,30.14-9.48,8-4.61,16.79-9.79,31.41-12.13a72.85,72.85,0,0,1,11.48-1c12.48,0,21.48,3.79,31.19,7.94s20.5,8.79,37.46,11.12q3.14.43,6.22.71c2.78.25,5.46.4,8,.45,16.05.28,26.4-3.33,36.81-7.39,11.41-4.4,22.42-9.37,39.3-10a107.44,107.44,0,0,1,13.41.29,138.68,138.68,0,0,1,16,2.31,202.89,202.89,0,0,1,29.95,9c11.56,4.26,21.54,8.21,31.52,9.05A43.81,43.81,0,0,0,502,26.5a42.33,42.33,0,0,0,12.82-5.94,127.12,127.12,0,0,1,11.1-6.76c.76-.4,1.53-.79,2.34-1.18,9.62-4.73,17.41-8,28.9-9.53C577.86.4,603.51,7,640,27v5" fill="#d2d2d2"></path><path d="M0,45.57v-18a32.81,32.81,0,0,1,19.66-6,39,39,0,0,1,4.43.27c7,.83,11,3.44,14.84,5.71,1,.6,2,1.18,3.06,1.7.51.25,1,.49,1.56.71a17.94,17.94,0,0,0,6.78,1.38c6.3,0,12.81-3.26,20.24-7.09,9.2-4.75,19.59-10.25,33-11.75a57.36,57.36,0,0,1,6.26-.35c11.18,0,18,3.95,25.07,7.68s14.28,7.38,27.26,7.33l1,0c14-.26,21.6-4.56,30.13-9.48,8-4.61,16.79-9.79,31.41-12.13a72.73,72.73,0,0,1,11.47-1c12.46,0,21.45,3.78,31.15,7.93s20.49,8.78,37.43,11.12q3.12.44,6.21.71c2.78.26,5.46.41,8,.45,16,.3,26.39-3.29,36.78-7.33C367.24,13,378.23,8,395.07,7.31a105.24,105.24,0,0,1,13.4.27,136.81,136.81,0,0,1,16,2.29,202,202,0,0,1,29.93,9C466,23.1,475.93,27,485.89,27.91a44.16,44.16,0,0,0,15.86-1.31,43,43,0,0,0,12.83-5.85c3-1.93,6.35-4.23,11.11-6.7.76-.4,1.53-.79,2.33-1.18,9.65-4.74,17.33-8.08,28.83-9.65C577.49.42,603.22,6.89,640,27v5.18" fill="#d3d3d3"></path><path d="M0,45.6v-18a32.82,32.82,0,0,1,19.66-6,39,39,0,0,1,4.43.27c7,.83,11,3.45,14.83,5.72,1,.6,2,1.18,3.06,1.69.52.26,1,.49,1.56.71a18,18,0,0,0,6.79,1.38c6.3,0,12.81-3.25,20.24-7.09,9.2-4.74,19.59-10.25,33-11.75a54.92,54.92,0,0,1,6.25-.35c11.18,0,18,4,25.07,7.69s14.29,7.37,27.28,7.31h1c14-.27,21.61-4.56,30.14-9.48,8-4.61,16.78-9.79,31.4-12.13a72.71,72.71,0,0,1,11.46-1c12.44,0,21.42,3.78,31.12,7.92s20.47,8.78,37.38,11.12q3.12.43,6.2.72c2.78.25,5.46.4,8,.45,16,.31,26.38-3.25,36.75-7.28,11.43-4.39,22.4-9.39,39.2-10.12a106.64,106.64,0,0,1,13.38.25,135.13,135.13,0,0,1,16,2.27,198,198,0,0,1,29.91,8.93c11.53,4.24,21.49,8.18,31.44,9.09a44.21,44.21,0,0,0,15.84-1.23,43.19,43.19,0,0,0,12.84-5.75c3.07-1.91,6.38-4.18,11.13-6.65.76-.39,1.53-.78,2.33-1.17C537.44,8.38,545,5,556.51,3.36,577.12.44,602.94,6.76,640,27v5.39" fill="#d4d4d3"></path><path d="M0,45.63v-18a32.9,32.9,0,0,1,19.66-6,38.83,38.83,0,0,1,4.42.27c7,.83,11,3.45,14.84,5.72,1,.6,2,1.18,3.06,1.69.51.26,1,.5,1.56.71a17.75,17.75,0,0,0,6.78,1.38c6.32,0,12.83-3.25,20.25-7.08,9.21-4.75,19.6-10.26,33.05-11.76a54.79,54.79,0,0,1,6.25-.35c11.17,0,18,4,25.07,7.7s14.29,7.37,27.28,7.3h1c14-.27,21.62-4.56,30.14-9.47,8-4.62,16.78-9.8,31.39-12.14a72.68,72.68,0,0,1,11.45-1c12.44,0,21.4,3.77,31.1,7.91s20.45,8.77,37.34,11.12c2.07.29,4.14.53,6.19.72q4.17.38,8,.46c16,.32,26.37-3.22,36.72-7.23C367,13.23,378,8.21,394.73,7.46a106.29,106.29,0,0,1,13.37.22,135.82,135.82,0,0,1,16,2.24A195.76,195.76,0,0,1,454,18.81c11.52,4.23,21.47,8.18,31.4,9.12a44.28,44.28,0,0,0,15.82-1.15,43.31,43.31,0,0,0,12.86-5.65c3.07-1.88,6.4-4.14,11.14-6.59.75-.39,1.53-.78,2.33-1.17,9.69-4.75,17.15-8.18,28.65-9.88,20.57-3,46.48,3.15,83.83,23.57v5.61" fill="#d4d4d4"></path><path d="M0,45.66V27.73a33,33,0,0,1,19.66-6,38.52,38.52,0,0,1,4.41.27c7,.83,11,3.45,14.84,5.73,1,.6,2,1.17,3.06,1.69.52.25,1,.49,1.56.7a17.84,17.84,0,0,0,6.79,1.38c6.32,0,12.83-3.24,20.26-7.07,9.2-4.75,19.6-10.27,33-11.77a55.09,55.09,0,0,1,6.26-.35c11.17.05,18,4,25.06,7.71s14.3,7.36,27.29,7.29h1c14-.27,21.62-4.56,30.14-9.47,8-4.62,16.78-9.8,31.39-12.15a73.7,73.7,0,0,1,11.44-1c12.42,0,21.37,3.76,31.06,7.9s20.44,8.77,37.3,11.12q3.11.43,6.19.72c2.77.25,5.44.41,8,.46,16,.34,26.36-3.18,36.69-7.17,11.46-4.38,22.38-9.4,39.1-10.19a105.81,105.81,0,0,1,13.35.2,135.92,135.92,0,0,1,16,2.22,194.89,194.89,0,0,1,29.86,8.84C465.26,23,475.2,27,485.11,27.94a44.59,44.59,0,0,0,15.8-1.07,43.5,43.5,0,0,0,12.87-5.55c3.09-1.86,6.43-4.1,11.15-6.53.76-.4,1.54-.78,2.33-1.17,9.72-4.76,17.07-8.23,28.58-10C576.37.48,602.36,6.52,640,27.1v5.82" fill="#d5d5d5"></path><path d="M0,45.69V27.79a33,33,0,0,1,19.67-6,36.17,36.17,0,0,1,4.39.27c7,.83,11,3.46,14.85,5.73,1,.6,2,1.18,3.06,1.69.51.26,1,.49,1.56.71a17.81,17.81,0,0,0,6.79,1.36c6.33,0,12.84-3.23,20.26-7.06,9.2-4.75,19.6-10.27,33.05-11.77a55,55,0,0,1,6.25-.35c11.17.05,18,4,25.07,7.72s14.3,7.35,27.3,7.28h1c13.95-.27,21.62-4.56,30.13-9.47,8-4.62,16.78-9.81,31.39-12.15a73.58,73.58,0,0,1,11.43-1c12.4,0,21.34,3.75,31,7.89s20.42,8.76,37.25,11.12q3.11.43,6.19.72c2.77.26,5.43.41,8,.47,16,.35,26.35-3.14,36.66-7.12,11.47-4.37,22.38-9.41,39.05-10.22a103.57,103.57,0,0,1,13.34.17,136.43,136.43,0,0,1,16,2.19,193.6,193.6,0,0,1,29.84,8.81C465,23,475,26.93,484.85,28a44.91,44.91,0,0,0,15.78-1,43.87,43.87,0,0,0,12.89-5.46c3.1-1.84,6.44-4.05,11.16-6.48L527,13.86c9.74-4.76,17-8.27,28.49-10.1C576,.5,602.07,6.4,640,27.13v6" fill="#d6d6d6"></path><path d="M0,45.72V27.85a33,33,0,0,1,19.67-6,36.3,36.3,0,0,1,4.39.27c7,.83,11,3.46,14.84,5.74,1,.6,2,1.17,3.06,1.68.52.26,1,.5,1.57.71a17.76,17.76,0,0,0,6.78,1.36c6.34,0,12.85-3.23,20.27-7,9.21-4.75,19.61-10.28,33.06-11.78a54.92,54.92,0,0,1,6.25-.35c11.17.05,18,4,25.06,7.73s14.31,7.34,27.31,7.27h1c14-.28,21.63-4.56,30.13-9.47,8-4.62,16.78-9.81,31.39-12.15a73.46,73.46,0,0,1,11.42-1c12.38,0,21.31,3.74,31,7.88s20.4,8.76,37.22,11.12q3.09.44,6.17.72,4.15.39,8,.47c16,.37,26.34-3.1,36.63-7.06,11.48-4.37,22.37-9.42,39-10.26a103.13,103.13,0,0,1,13.32.15A134.42,134.42,0,0,1,423.49,10a192.41,192.41,0,0,1,29.82,8.76c11.48,4.19,21.4,8.14,31.28,9.2a45,45,0,0,0,15.76-.9,44.05,44.05,0,0,0,12.9-5.36c3.12-1.81,6.47-4,11.18-6.42l2.33-1.17c9.76-4.76,16.88-8.32,28.4-10.21C575.62.53,601.79,6.27,640,27.17v6.25" fill="#d7d7d6"></path><path d="M0,45.75V27.91a33,33,0,0,1,19.67-6,36.13,36.13,0,0,1,4.38.27c7,.83,11,3.46,14.84,5.74,1,.6,2,1.18,3.07,1.69.51.25,1,.49,1.56.7a18,18,0,0,0,6.79,1.36c6.35,0,12.86-3.22,20.27-7,9.21-4.75,19.61-10.28,33.06-11.78a55.09,55.09,0,0,1,6.26-.35c11.16,0,18,4,25,7.74s14.32,7.33,27.32,7.26h1c13.95-.28,21.64-4.57,30.14-9.47,8-4.62,16.77-9.81,31.38-12.15a73.33,73.33,0,0,1,11.41-1c12.37,0,21.28,3.74,31,7.87s20.38,8.75,37.17,11.12q3.09.43,6.17.72,4.16.39,8,.48c15.94.38,26.32-3.07,36.6-7,11.49-4.36,22.36-9.42,38.95-10.3a104.48,104.48,0,0,1,13.3.13A134.76,134.76,0,0,1,423.29,10a192.28,192.28,0,0,1,29.8,8.72c11.47,4.18,21.38,8.14,31.23,9.23a45.38,45.38,0,0,0,15.75-.82A44.42,44.42,0,0,0,513,21.89c3.13-1.79,6.49-4,11.19-6.36l2.33-1.17C536.3,9.59,543.3,6,554.83,4,575.25.55,601.5,6.15,640,27.2v6.47" fill="#d7d7d7"></path><path d="M0,45.78V28a33.16,33.16,0,0,1,19.67-6,35.85,35.85,0,0,1,4.37.27c7,.83,11,3.47,14.85,5.75,1,.6,2,1.17,3.06,1.68.52.26,1,.49,1.57.7a18,18,0,0,0,6.79,1.36c6.35,0,12.86-3.22,20.27-7,9.22-4.75,19.62-10.29,33.07-11.79a55,55,0,0,1,6.25-.35c11.16.05,18,4,25.06,7.75s14.32,7.33,27.32,7.25h1c13.94-.28,21.63-4.57,30.13-9.46,8-4.63,16.77-9.82,31.38-12.16a73.19,73.19,0,0,1,11.39-1c12.36,0,21.26,3.73,30.93,7.86s20.37,8.74,37.14,11.12c2,.29,4.11.53,6.16.73,2.76.26,5.42.42,8,.48,15.92.38,26.31-3,36.57-7,11.51-4.36,22.35-9.43,38.9-10.33a104.08,104.08,0,0,1,13.29.1,132.89,132.89,0,0,1,15.92,2.12,190,190,0,0,1,29.78,8.68c11.45,4.16,21.35,8.12,31.19,9.25a45.47,45.47,0,0,0,15.73-.74,44.32,44.32,0,0,0,12.93-5.16c3.14-1.77,6.52-3.92,11.21-6.31l2.32-1.16C536.07,9.83,543,6.2,554.49,4.17,574.87.57,601.21,6,640,27.23v6.69" fill="#d8d8d8"></path><path d="M0,45.81V28a33.21,33.21,0,0,1,19.68-6,35.93,35.93,0,0,1,4.36.27c7,.83,11,3.47,14.84,5.75,1,.6,2,1.18,3.07,1.69.51.25,1,.48,1.56.7a18.22,18.22,0,0,0,6.79,1.35c6.37,0,12.88-3.21,20.29-7C79.8,20,90.2,14.44,103.65,12.94a55.34,55.34,0,0,1,6.26-.35c11.16.05,18,4,25.05,7.76s14.33,7.32,27.34,7.24h1c13.94-.29,21.64-4.57,30.13-9.46,8-4.63,16.77-9.82,31.38-12.16a73.07,73.07,0,0,1,11.38-1c12.34,0,21.23,3.72,30.9,7.85S287.47,21.58,304.21,24c2.05.29,4.11.53,6.16.73q4.14.39,7.94.48c15.91.4,26.31-3,36.55-6.9,11.52-4.35,22.35-9.44,38.85-10.37A101.81,101.81,0,0,1,407,8a135.28,135.28,0,0,1,15.91,2.09,189.1,189.1,0,0,1,29.76,8.64C464.09,22.87,474,26.82,483.8,28a45.33,45.33,0,0,0,15.71-.65,44.68,44.68,0,0,0,13-5.06c3.15-1.74,6.54-3.88,11.21-6.25L526,14.86c9.84-4.79,16.62-8.46,28.16-10.56C574.5.59,600.93,5.91,640,27.27v6.9" fill="#d9d9d9"></path><path d="M0,45.84V28.08a33.26,33.26,0,0,1,19.68-6,35.64,35.64,0,0,1,4.35.27c7,.83,10.95,3.47,14.84,5.76,1,.6,2,1.17,3.07,1.68.52.25,1,.49,1.57.7a18.22,18.22,0,0,0,6.79,1.35c6.37,0,12.89-3.21,20.29-7,9.22-4.75,19.62-10.3,33.07-11.8a53,53,0,0,1,6.26-.35c11.15.06,18,4,25,7.77s14.33,7.31,27.34,7.23h1c13.95-.29,21.65-4.57,30.13-9.46,8-4.63,16.77-9.82,31.38-12.16a72.94,72.94,0,0,1,11.37-1c12.32,0,21.2,3.71,30.86,7.84S287.42,21.62,304.14,24q3.06.43,6.15.73c2.75.26,5.4.43,7.93.49,15.9.41,26.29-3,36.52-6.85C366.26,14,377.08,8.94,393.54,8A101.44,101.44,0,0,1,406.8,8a133.36,133.36,0,0,1,15.89,2.07,189,189,0,0,1,29.74,8.59c11.43,4.15,21.31,8.11,31.11,9.3a45.77,45.77,0,0,0,15.7-.56,45.18,45.18,0,0,0,13-5c3.17-1.72,6.57-3.84,11.23-6.2l2.33-1.15c9.86-4.79,16.53-8.51,28.07-10.68C574.13.62,600.64,5.78,640,27.3v7.12" fill="#dadada"></path><path d="M0,45.87V28.14a33.3,33.3,0,0,1,19.68-6,37.43,37.43,0,0,1,4.34.26c7,.84,11,3.49,14.85,5.77,1,.6,2,1.17,3.07,1.68.51.26,1,.49,1.56.7a18.27,18.27,0,0,0,6.8,1.35c6.38,0,12.89-3.21,20.29-7,9.22-4.76,19.62-10.31,33.08-11.81a52.82,52.82,0,0,1,6.25-.35c11.15.06,17.94,4,25,7.78s14.34,7.3,27.35,7.22h1c14-.29,21.66-4.57,30.14-9.46,8-4.63,16.76-9.82,31.37-12.16a72.72,72.72,0,0,1,11.36-1c12.3,0,21.17,3.71,30.83,7.83s20.32,8.73,37,11.11c2,.3,4.09.54,6.14.74,2.76.27,5.4.43,7.93.5,15.88.42,26.28-2.94,36.49-6.8C366.16,14.13,377,9.07,393.36,8.05a102.9,102.9,0,0,1,13.25,0,133.65,133.65,0,0,1,15.88,2,188.09,188.09,0,0,1,29.72,8.56c11.42,4.13,21.29,8.09,31.07,9.32A45.88,45.88,0,0,0,499,27.52a45.24,45.24,0,0,0,13-4.87c3.18-1.7,6.58-3.8,11.24-6.14l2.32-1.15c9.89-4.8,16.45-8.55,28-10.79C573.75.64,600.35,5.66,640,27.34v7.33" fill="#dadada"></path><path d="M0,45.9V28.2a33.34,33.34,0,0,1,19.68-6,37.56,37.56,0,0,1,4.34.26c7,.84,10.94,3.49,14.84,5.78,1,.6,2,1.17,3.07,1.68.52.25,1,.48,1.57.69A18.22,18.22,0,0,0,50.29,32c6.39,0,12.91-3.2,20.3-7,9.22-4.75,19.63-10.31,33.08-11.81a53.1,53.1,0,0,1,6.26-.35c11.15.06,17.93,4,25,7.79s14.35,7.29,27.37,7.21h1c13.94-.29,21.65-4.57,30.13-9.46,8-4.63,16.76-9.82,31.37-12.16a72.68,72.68,0,0,1,11.34-1c12.3,0,21.15,3.7,30.8,7.82s20.3,8.72,37,11.11c2,.3,4.09.54,6.14.74,2.75.27,5.4.43,7.92.5,15.86.44,26.27-2.9,36.46-6.74,11.55-4.36,22.32-9.42,38.69-10.48a104.42,104.42,0,0,1,13.24,0,131.75,131.75,0,0,1,15.86,2A186.5,186.5,0,0,1,452,18.66c11.41,4.12,21.27,8.08,31,9.35a46.26,46.26,0,0,0,15.66-.4,45.11,45.11,0,0,0,13-4.77c3.2-1.67,6.61-3.75,11.26-6.08.76-.39,1.54-.76,2.32-1.15C535.15,10.8,541.6,7,553.15,4.7c20.23-4,46.91.84,86.85,22.67v7.55" fill="#dbdbdb"></path><path d="M0,45.93V28.25a33.38,33.38,0,0,1,19.69-6,37.22,37.22,0,0,1,4.32.26c7,.83,10.93,3.5,14.84,5.79,1,.59,2,1.16,3.07,1.67.53.25,1,.48,1.57.69A18.31,18.31,0,0,0,50.29,32c6.4,0,12.91-3.2,20.3-7,9.23-4.75,19.63-10.32,33.09-11.82a53.1,53.1,0,0,1,6.26-.35c11.14.06,17.91,4,25,7.8s14.35,7.29,27.37,7.2h1c13.94-.3,21.66-4.58,30.13-9.46,8-4.63,16.76-9.82,31.37-12.16a72.56,72.56,0,0,1,11.33-1c12.28,0,21.12,3.69,30.77,7.81s20.28,8.72,36.93,11.11c2,.3,4.08.54,6.13.74q4.13.41,7.91.51c15.85.45,26.26-2.86,36.43-6.69C365.94,14.36,376.7,9.28,393,8.2a102,102,0,0,1,13.22,0,132,132,0,0,1,15.85,2,186.37,186.37,0,0,1,29.67,8.47c11.4,4.11,21.25,8.07,31,9.38a46.39,46.39,0,0,0,15.64-.32,45.55,45.55,0,0,0,13-4.67c3.2-1.65,6.63-3.71,11.27-6L525,15.86c9.93-4.82,16.26-8.65,27.82-11,20.2-4.15,47,.57,87.19,22.57v7.76" fill="#dcdcdc"></path><path d="M0,46V28.31a33.43,33.43,0,0,1,19.69-6,37,37,0,0,1,4.31.26c7,.83,10.93,3.5,14.85,5.79,1,.6,2,1.17,3.07,1.67.52.26,1,.49,1.57.7a18.49,18.49,0,0,0,6.8,1.34c6.4,0,12.92-3.19,20.31-7,9.22-4.76,19.63-10.33,33.09-11.83a52.94,52.94,0,0,1,6.25-.35c11.15.06,17.91,4,25,7.81s14.36,7.28,27.38,7.19h1c13.94-.3,21.67-4.58,30.13-9.45,8-4.64,16.76-9.84,31.37-12.18a72.26,72.26,0,0,1,11.32-1c12.26,0,21.09,3.68,30.74,7.8s20.26,8.71,36.88,11.11q3.06.43,6.13.74c2.74.27,5.38.44,7.9.52,15.83.46,26.25-2.83,36.4-6.64,11.57-4.35,22.31-9.44,38.59-10.55a101.72,101.72,0,0,1,13.21,0,130.12,130.12,0,0,1,15.83,2,183.15,183.15,0,0,1,29.65,8.43c11.39,4.09,21.23,8.06,31,9.4a47.05,47.05,0,0,0,15.62-.23,46.32,46.32,0,0,0,13-4.57c3.22-1.64,6.66-3.68,11.29-6l2.32-1.14c10-4.82,16.17-8.7,27.73-11.14,20.16-4.26,47,.32,87.53,22.47v8" fill="#dddddc"></path><path d="M0,46V28.37a33.47,33.47,0,0,1,19.69-6,36.88,36.88,0,0,1,4.3.26c7,.83,10.93,3.5,14.85,5.8,1,.59,2,1.16,3.07,1.67.53.25,1.05.48,1.57.69a18.51,18.51,0,0,0,6.81,1.34c6.4,0,12.92-3.19,20.31-7,9.23-4.75,19.64-10.33,33.09-11.83A53.1,53.1,0,0,1,110,13c11.14.06,17.9,4,25,7.82S149.35,28,162.38,28h1c13.94-.3,21.68-4.58,30.13-9.45,8.05-4.64,16.76-9.84,31.37-12.18a72.14,72.14,0,0,1,11.31-1c12.24,0,21.06,3.67,30.7,7.79s20.25,8.71,36.85,11.11q3,.43,6.11.75,4.13.41,7.9.51c15.82.48,26.24-2.79,36.37-6.58,11.59-4.34,22.3-9.44,38.54-10.58a101.18,101.18,0,0,1,13.19-.07,130.79,130.79,0,0,1,15.83,2,182.2,182.2,0,0,1,29.62,8.38c11.38,4.08,21.2,8.05,30.91,9.43a47.26,47.26,0,0,0,15.61-.15,46.66,46.66,0,0,0,13-4.47c3.23-1.61,6.68-3.63,11.29-5.92l2.32-1.14c10-4.83,16.09-8.74,27.66-11.25C572.26.74,599.2,5.17,640,27.47v8.2" fill="#ddd"></path><path d="M0,46V28.43a33.49,33.49,0,0,1,19.69-6,37,37,0,0,1,4.3.26c7,.83,10.92,3.51,14.84,5.8,1,.6,2,1.16,3.08,1.67.52.25,1,.48,1.57.69a18.49,18.49,0,0,0,6.8,1.34c6.42,0,12.94-3.19,20.32-7,9.23-4.76,19.64-10.35,33.1-11.84A53.1,53.1,0,0,1,110,13c11.13.06,17.88,4,25,7.83s14.38,7.26,27.4,7.17h1c13.93-.3,21.67-4.58,30.13-9.45,8-4.64,16.75-9.84,31.36-12.18a72.1,72.1,0,0,1,11.29-1c12.24,0,21,3.67,30.68,7.78s20.23,8.7,36.8,11.11c2,.29,4.06.54,6.11.75q4.11.4,7.89.52c15.8.49,26.22-2.75,36.34-6.53,11.6-4.34,22.29-9.45,38.49-10.62a100.86,100.86,0,0,1,13.18-.09,132.88,132.88,0,0,1,15.81,1.92,182.33,182.33,0,0,1,29.6,8.35c11.36,4.06,21.18,8,30.87,9.44A47.15,47.15,0,0,0,497.56,28a46.48,46.48,0,0,0,13-4.37c3.25-1.59,6.71-3.59,11.31-5.87l2.32-1.13c10-4.84,16-8.79,27.57-11.37C571.89.76,598.91,5.05,640,27.51v8.41" fill="#dedede"></path><path d="M0,46.06V28.48a33.66,33.66,0,0,1,19.7-6,36.67,36.67,0,0,1,4.28.26c7,.83,10.92,3.51,14.85,5.81,1,.59,2,1.16,3.07,1.66.53.26,1.05.49,1.58.69a18.49,18.49,0,0,0,6.8,1.34c6.42,0,12.94-3.18,20.32-7,9.24-4.75,19.65-10.35,33.11-11.85a55.19,55.19,0,0,1,6.25-.34c11.14.07,17.88,4.05,25,7.84s14.39,7.25,27.41,7.16h1c13.93-.31,21.68-4.58,30.13-9.45,8.06-4.64,16.75-9.84,31.35-12.18a72.1,72.1,0,0,1,11.29-1c12.22,0,21,3.66,30.64,7.77s20.22,8.7,36.77,11.11q3,.43,6.1.75,4.11.41,7.88.53c15.78.49,26.21-2.72,36.31-6.48,11.61-4.33,22.29-9.46,38.44-10.66a100.38,100.38,0,0,1,13.16-.11,131.09,131.09,0,0,1,15.8,1.9,181.23,181.23,0,0,1,29.58,8.3c11.35,4.06,21.16,8,30.83,9.47a47.31,47.31,0,0,0,15.57,0,46.8,46.8,0,0,0,13.06-4.27c3.26-1.57,6.72-3.55,11.32-5.81L524,16.86C534,12,539.89,8,551.47,5.37c20-4.58,47.16-.45,88.53,22.17v8.63" fill="#dfdfdf"></path><path d="M0,46.09V28.54a33.7,33.7,0,0,1,19.7-6,36.5,36.5,0,0,1,4.27.26c7,.83,10.91,3.51,14.85,5.81,1,.59,2,1.16,3.08,1.67.52.25,1,.48,1.57.69a18.74,18.74,0,0,0,6.81,1.33c6.43,0,12.95-3.18,20.32-7C79.84,20.57,90.25,15,103.71,13.47a55.36,55.36,0,0,1,6.26-.34c11.13.07,17.86,4.06,25,7.85s14.39,7.25,27.42,7.15l1,0c13.93-.3,21.69-4.57,30.13-9.44,8.06-4.64,16.74-9.84,31.35-12.18a72,72,0,0,1,11.28-1c12.2,0,21,3.65,30.61,7.76S287,22,303.53,24.4q3,.44,6.1.75c2.73.28,5.36.45,7.87.53,15.77.51,26.2-2.68,36.28-6.42,11.63-4.33,22.28-9.46,38.39-10.69a100,100,0,0,1,13.15-.14A131.36,131.36,0,0,1,421.1,10.3a181.39,181.39,0,0,1,29.56,8.26c11.34,4.05,21.13,8,30.79,9.5a48.09,48.09,0,0,0,15.56.11A47.29,47.29,0,0,0,510.07,24c3.27-1.54,6.75-3.5,11.34-5.75l2.32-1.13c10-4.85,15.82-8.88,27.4-11.6,20-4.7,47.21-.71,88.87,22.07v8.84" fill="#e0dfdf"></path><path d="M0,46.12V28.6a33.72,33.72,0,0,1,19.7-6,36.5,36.5,0,0,1,4.27.26c7,.83,10.9,3.52,14.85,5.82,1,.59,2,1.16,3.07,1.66.53.25,1,.48,1.58.69a18.69,18.69,0,0,0,6.8,1.33c6.44,0,13-3.17,20.34-7C79.84,20.64,90.26,15,103.72,13.53a55.24,55.24,0,0,1,6.26-.34c11.13.07,17.85,4.07,25,7.86s14.4,7.24,27.43,7.14l1,0c13.93-.3,21.7-4.58,30.13-9.43,8.07-4.65,16.74-9.85,31.35-12.19a72,72,0,0,1,11.27-1c12.18,0,20.95,3.64,30.57,7.75S287,22,303.46,24.45c2,.29,4,.55,6.08.75q4.11.42,7.87.54c15.75.52,26.19-2.64,36.25-6.37C365.3,15.05,375.93,9.9,392,8.64a99.53,99.53,0,0,1,13.13-.16,129.34,129.34,0,0,1,15.77,1.85,178.3,178.3,0,0,1,29.54,8.22c11.32,4,21.11,8,30.75,9.52a48.26,48.26,0,0,0,15.54.19,47.59,47.59,0,0,0,13.08-4.08c3.28-1.52,6.77-3.46,11.35-5.7l2.31-1.12c10.08-4.86,15.74-8.93,27.32-11.72,20-4.8,47.26-1,89.21,22v9.06" fill="#e0e0e0"></path><path d="M0,46.15V28.66a33.77,33.77,0,0,1,19.7-6,36.2,36.2,0,0,1,4.26.26c7,.83,10.9,3.52,14.85,5.82,1,.59,2,1.16,3.08,1.67.52.24,1,.47,1.57.68a18.78,18.78,0,0,0,6.81,1.33c6.45,0,13-3.17,20.34-7,9.24-4.76,19.65-10.37,33.12-11.87a55.19,55.19,0,0,1,6.25-.34c11.13.07,17.84,4.07,25,7.87s14.4,7.23,27.43,7.13l1,0c13.92-.31,21.69-4.58,30.12-9.43,8.08-4.65,16.74-9.85,31.35-12.19a71.71,71.71,0,0,1,11.25-1c12.17,0,20.93,3.64,30.55,7.74s20.16,8.68,36.64,11.11c2,.29,4,.55,6.08.75q4.1.42,7.85.55c15.74.53,26.19-2.61,36.23-6.32C365.19,15.17,375.8,10,391.83,8.72A99.09,99.09,0,0,1,405,8.53a131.59,131.59,0,0,1,15.75,1.82,177.89,177.89,0,0,1,29.52,8.18c11.31,4,21.09,8,30.71,9.55a48.45,48.45,0,0,0,15.52.27,47.37,47.37,0,0,0,13.09-4c3.3-1.5,6.8-3.41,11.37-5.64l2.31-1.12c10.1-4.87,15.64-9,27.24-11.83C570.39.86,597.77,4.56,640,27.65v9.27" fill="#e1e1e1"></path><path d="M0,46.18V28.72a33.81,33.81,0,0,1,19.7-6A36,36,0,0,1,24,23c7,.83,10.9,3.52,14.85,5.83,1,.59,2,1.16,3.08,1.66.53.25,1,.48,1.58.68a18.74,18.74,0,0,0,6.81,1.33c6.45,0,13-3.17,20.34-7,9.24-4.76,19.66-10.38,33.12-11.88a55.48,55.48,0,0,1,6.26-.34c11.12.07,17.83,4.08,25,7.88s14.41,7.22,27.45,7.12l1,0c13.92-.31,21.7-4.58,30.13-9.43C201.68,14.21,210.34,9,225,6.67a71.59,71.59,0,0,1,11.24-1c12.16,0,20.9,3.63,30.51,7.73s20.15,8.67,36.6,11.11c2,.29,4,.55,6.08.76,2.73.27,5.34.46,7.84.54,15.73.55,26.18-2.57,36.2-6.26,11.66-4.31,22.25-9.49,38.23-10.8a100.55,100.55,0,0,1,13.11-.21,129.54,129.54,0,0,1,15.74,1.8A178.08,178.08,0,0,1,450,18.51c11.3,4,21.07,8,30.67,9.58a48.93,48.93,0,0,0,15.5.35,47.31,47.31,0,0,0,13.11-3.88c3.31-1.47,6.82-3.37,11.37-5.58L523,17.86c10.12-4.88,15.55-9,27.15-11.95C570,.89,597.48,4.43,640,27.68v9.49" fill="#e2e2e2"></path><path d="M0,46.21V28.77a33.93,33.93,0,0,1,19.71-6,36,36,0,0,1,4.24.26c7,.83,10.89,3.53,14.85,5.83,1,.59,2,1.16,3.08,1.66.52.25,1,.48,1.57.69a18.8,18.8,0,0,0,6.81,1.32c6.47,0,13-3.16,20.35-7,9.25-4.76,19.66-10.38,33.13-11.88a55.48,55.48,0,0,1,6.26-.34c11.12.07,17.82,4.08,25,7.88s14.42,7.22,27.46,7.12l1,0c13.93-.31,21.71-4.58,30.13-9.43C201.7,14.27,210.35,9.07,225,6.73a71.57,71.57,0,0,1,11.23-1c12.14,0,20.87,3.62,30.48,7.72,9.46,4,20.13,8.67,36.56,11.11,2,.29,4,.55,6.07.76,2.72.28,5.34.46,7.83.55,15.71.56,26.17-2.53,36.17-6.22C365,15.4,375.55,10.21,391.48,8.86a98.51,98.51,0,0,1,13.1-.23A129.75,129.75,0,0,1,420.3,10.4a177,177,0,0,1,29.48,8.1c11.29,4,21,8,30.62,9.6a49.2,49.2,0,0,0,15.49.43A47.5,47.5,0,0,0,509,24.75c3.33-1.45,6.85-3.33,11.39-5.53l2.31-1.11C532.86,13.23,538.18,9,549.78,6.05,569.65.92,597.19,4.31,640,27.72v9.7" fill="#e2e2e2"></path><path d="M0,46.24V28.83a33.9,33.9,0,0,1,19.71-6,35.83,35.83,0,0,1,4.23.26c7,.83,10.88,3.53,14.85,5.84,1,.59,2,1.15,3.08,1.66.53.24,1.05.47,1.58.68a18.76,18.76,0,0,0,6.81,1.32c6.47,0,13-3.16,20.36-6.95,9.24-4.76,19.66-10.39,33.13-11.89a53,53,0,0,1,6.25-.34c11.12.07,17.81,4.09,25,7.89,7,3.73,14.42,7.22,27.46,7.11l1,0c13.92-.31,21.71-4.58,30.12-9.43,8.09-4.65,16.73-9.85,31.34-12.19a71.35,71.35,0,0,1,11.22-1c12.12,0,20.84,3.61,30.44,7.71s20.12,8.66,36.52,11.1q3,.45,6.06.77,4.1.42,7.83.55c15.7.58,26.15-2.49,36.14-6.16,11.69-4.29,22.24-9.49,38.13-10.86a98,98,0,0,1,13.08-.26,127.73,127.73,0,0,1,15.71,1.75,176.16,176.16,0,0,1,29.46,8.05c11.27,4,21,8,30.58,9.62a49.72,49.72,0,0,0,15.47.53,48.11,48.11,0,0,0,13.14-3.69c3.33-1.43,6.86-3.28,11.4-5.47l2.31-1.11c10.17-4.89,15.38-9.11,27-12.18C569.27.94,596.9,4.19,640,27.75v9.92" fill="#e3e3e3"></path><path d="M0,46.27V28.89a34,34,0,0,1,19.71-6,35.66,35.66,0,0,1,4.22.26C30.9,24,34.81,26.7,38.78,29c1,.59,2,1.16,3.09,1.66.52.25,1.05.48,1.57.68a18.81,18.81,0,0,0,6.82,1.32c6.48,0,13-3.15,20.36-6.94,9.25-4.77,19.66-10.4,33.13-11.9a51.16,51.16,0,0,1,6.26-.34c11.11.08,17.8,4.1,25,7.9,7,3.72,14.43,7.21,27.48,7.1l1,0c13.92-.32,21.72-4.58,30.12-9.43,8.09-4.65,16.73-9.86,31.34-12.2a72.34,72.34,0,0,1,11.2-1c12.11,0,20.82,3.6,30.42,7.7,9.45,4,20.09,8.66,36.48,11.1q3,.45,6.05.77,4.08.42,7.82.56c15.68.59,26.14-2.46,36.11-6.11,11.7-4.28,22.23-9.5,38.08-10.9a97.6,97.6,0,0,1,13.07-.28,127.89,127.89,0,0,1,15.69,1.72,175.08,175.08,0,0,1,29.44,8c11.26,4,21,8,30.54,9.65a49.94,49.94,0,0,0,15.45.61,47.83,47.83,0,0,0,13.15-3.59c3.35-1.4,6.89-3.24,11.42-5.41l2.31-1.11c10.19-4.9,15.29-9.16,26.9-12.29C568.9,1,596.62,4.06,640,27.78V37.92" fill="#e4e4e4"></path><path d="M0,46.3V29a34,34,0,0,1,19.71-6,35.5,35.5,0,0,1,4.21.26c7,.83,10.88,3.54,14.86,5.85,1,.59,2,1.15,3.08,1.65.53.25,1,.48,1.58.68a19,19,0,0,0,6.81,1.32c6.49.05,13-3.15,20.37-6.94,9.25-4.76,19.67-10.4,33.14-11.9a51.16,51.16,0,0,1,6.26-.34c11.11.08,17.78,4.1,25,7.91,7,3.72,14.43,7.2,27.48,7.09l1,0c13.92-.32,21.72-4.58,30.13-9.42C201.75,14.45,210.38,9.24,225,6.9a72.22,72.22,0,0,1,11.19-1c12.09,0,20.79,3.6,30.39,7.69,9.44,4,20.07,8.65,36.43,11.1q3,.45,6.05.77c2.72.29,5.32.47,7.81.57,15.66.6,26.13-2.42,36.08-6.06,11.71-4.28,22.22-9.5,38-10.93a97.11,97.11,0,0,1,13-.31,127.84,127.84,0,0,1,15.68,1.7,173.07,173.07,0,0,1,29.42,8c11.25,4,21,7.94,30.5,9.67a50.17,50.17,0,0,0,15.43.69,48.07,48.07,0,0,0,13.17-3.49c3.36-1.38,6.91-3.2,11.43-5.36l2.31-1.1c10.21-4.91,15.2-9.2,26.82-12.41C568.53,1,596.33,3.94,640,27.82V38.17" fill="#e5e4e4"></path><path d="M0,46.33V29a34,34,0,0,1,19.72-6,37.67,37.67,0,0,1,4.2.25c7,.84,10.87,3.55,14.85,5.87,1,.58,2,1.15,3.09,1.65.52.24,1,.47,1.57.67a19.11,19.11,0,0,0,6.82,1.32c6.5.05,13-3.15,20.37-6.93C79.88,21.09,90.3,15.45,103.77,14a51,51,0,0,1,6.25-.34c11.11.08,17.78,4.11,25,7.92,7,3.71,14.44,7.19,27.49,7.08l1,0c13.92-.32,21.73-4.59,30.13-9.42C201.76,14.51,210.39,9.3,225,7a72.1,72.1,0,0,1,11.18-1c12.08,0,20.76,3.59,30.35,7.68s20.06,8.65,36.4,11.1c2,.3,4,.56,6,.77q4.06.44,7.8.57c15.65.62,26.12-2.38,36.05-6,11.73-4.27,22.22-9.51,38-11a96.67,96.67,0,0,1,13-.33,128,128,0,0,1,15.67,1.68,172.31,172.31,0,0,1,29.4,7.92c11.24,3.95,21,7.94,30.46,9.7a50.41,50.41,0,0,0,15.41.77A48.21,48.21,0,0,0,508,25.51c3.38-1.36,6.94-3.15,11.45-5.3l2.3-1.1c10.24-4.91,15.12-9.25,26.74-12.53C568.15,1,596,3.82,640,27.85V38.42" fill="#e5e5e5"></path><path d="M0,46.36V29.06a34.18,34.18,0,0,1,19.72-6,35.13,35.13,0,0,1,4.19.25c7,.84,10.86,3.55,14.85,5.87,1,.59,2,1.15,3.09,1.65.53.25,1,.47,1.58.68a19.23,19.23,0,0,0,6.82,1.31c6.5,0,13-3.14,20.37-6.93C79.88,21.16,90.3,15.51,103.77,14a51.16,51.16,0,0,1,6.26-.34c11.11.08,17.76,4.12,25,7.93,7,3.71,14.44,7.18,27.5,7.07l1,0c13.91-.32,21.73-4.59,30.12-9.42C201.78,14.57,210.4,9.36,225,7a72,72,0,0,1,11.17-.95c12.06,0,20.73,3.58,30.32,7.67,9.42,4,20,8.64,36.35,11.1q3,.45,6,.78,4.08.42,7.8.57c15.63.62,26.11-2.34,36-6,11.74-4.27,22.21-9.52,37.93-11a96.27,96.27,0,0,1,13-.35,127.9,127.9,0,0,1,15.65,1.65,172.86,172.86,0,0,1,29.38,7.88c11.22,3.94,20.93,7.93,30.42,9.73a51.35,51.35,0,0,0,15.4.86,48.81,48.81,0,0,0,13.19-3.3c3.38-1.33,7-3.11,11.45-5.24l2.31-1.1c10.26-4.92,15-9.29,26.65-12.64,19.68-5.67,47.65-3,91.9,21.17V38.67" fill="#e6e6e6"></path><path d="M0,46.39V29.12a34.2,34.2,0,0,1,19.72-6,35,35,0,0,1,4.18.25c7,.84,10.86,3.56,14.86,5.88,1,.58,2,1.14,3.09,1.64.52.25,1,.48,1.58.68a19.23,19.23,0,0,0,6.82,1.31c6.51.05,13-3.14,20.38-6.92,9.25-4.77,19.68-10.42,33.15-11.92a51.16,51.16,0,0,1,6.26-.34c11.1.08,17.75,4.12,25,7.94,7,3.7,14.45,7.18,27.51,7.06l1,0c13.91-.33,21.74-4.59,30.12-9.42C201.8,14.63,210.41,9.42,225,7.08a71.73,71.73,0,0,1,11.15-1c12.05,0,20.71,3.57,30.29,7.66,9.42,4,20,8.63,36.32,11.1,2,.3,4,.56,6,.78,2.71.28,5.31.48,7.79.58,15.61.63,26.1-2.31,36-5.9,11.75-4.26,22.2-9.53,37.88-11a95.8,95.8,0,0,1,13-.38,126.43,126.43,0,0,1,15.65,1.63,171.26,171.26,0,0,1,29.35,7.84c11.21,3.92,20.9,7.91,30.38,9.75a51.93,51.93,0,0,0,15.38.94,48.47,48.47,0,0,0,13.2-3.2c3.4-1.31,7-3.07,11.47-5.19l2.31-1.09c10.28-4.93,14.94-9.34,26.57-12.76,19.64-5.77,47.7-3.28,92.23,21.07v11" fill="#e7e7e7"></path><path d="M0,46.42V29.18a34.25,34.25,0,0,1,19.72-6,35,35,0,0,1,4.18.25c7,.84,10.85,3.56,14.85,5.88,1,.59,2,1.15,3.09,1.65.53.24,1,.47,1.58.67A19.31,19.31,0,0,0,50.24,33c6.52.05,13-3.13,20.39-6.91,9.26-4.77,19.68-10.43,33.16-11.93a51.11,51.11,0,0,1,6.25-.34c11.1.08,17.75,4.13,25,8,7,3.7,14.46,7.17,27.52,7.05l1,0c13.91-.33,21.74-4.59,30.12-9.42,8.11-4.66,16.72-9.87,31.33-12.21a71.71,71.71,0,0,1,11.14-.95c12,0,20.68,3.57,30.26,7.65,9.41,4,20,8.63,36.27,11.1,2,.3,4,.56,6,.78q4.06.44,7.78.58c15.6.65,26.09-2.27,36-5.84,11.77-4.25,22.19-9.53,37.83-11.08a95.45,95.45,0,0,1,13-.4,126.52,126.52,0,0,1,15.63,1.6,171.13,171.13,0,0,1,29.33,7.8c11.2,3.91,20.88,7.91,30.34,9.78a52.22,52.22,0,0,0,15.36,1,48.65,48.65,0,0,0,13.22-3.1c3.41-1.29,7-3,11.48-5.13l2.3-1.09C531.25,14.92,535.8,10.48,547.43,7,567,1.11,595.18,3.45,640,28V39.17" fill="#e7e7e7"></path><path d="M0,46.45V29.24a34.31,34.31,0,0,1,19.73-6,34.76,34.76,0,0,1,4.16.25c7,.84,10.85,3.56,14.85,5.89,1,.58,2,1.14,3.1,1.64.52.25,1,.47,1.58.67A19.27,19.27,0,0,0,50.24,33c6.52,0,13-3.13,20.39-6.91,9.26-4.76,19.69-10.43,33.16-11.93a51.27,51.27,0,0,1,6.26-.34c11.1.09,17.73,4.14,25,8,7,3.7,14.46,7.16,27.53,7l1,0c13.91-.33,21.75-4.59,30.13-9.41C201.83,14.75,210.43,9.54,225,7.2a70.38,70.38,0,0,1,11.13-1c12,0,20.65,3.56,30.22,7.64,9.41,4,20,8.62,36.23,11.1,2,.3,4,.56,6,.78q4,.43,7.77.59c15.58.66,26.08-2.23,35.93-5.79,11.78-4.25,22.18-9.54,37.78-11.11a94.93,94.93,0,0,1,13-.43,126.61,126.61,0,0,1,15.62,1.58A169.46,169.46,0,0,1,448,18.36c11.18,3.9,20.86,7.9,30.29,9.8a52.58,52.58,0,0,0,15.35,1.11,48.66,48.66,0,0,0,13.23-3c3.43-1.27,7-3,11.5-5.07l2.3-1.09c10.34-4.94,14.76-9.43,26.4-13,19.57-6,47.8-3.79,92.91,20.87V39.42" fill="#e8e8e8"></path><path d="M0,46.48V29.29a34.45,34.45,0,0,1,19.73-6,34.47,34.47,0,0,1,4.15.25c7,.84,10.85,3.57,14.86,5.89,1,.59,2,1.15,3.09,1.65.53.24,1.05.46,1.58.67a19.53,19.53,0,0,0,6.83,1.3c6.53,0,13.06-3.13,20.39-6.9,9.27-4.77,19.69-10.44,33.17-11.94a51.16,51.16,0,0,1,6.26-.34c11.09.09,17.72,4.14,25,8,7,3.69,14.48,7.15,27.54,7h1c13.9-.33,21.75-4.59,30.12-9.41,8.12-4.68,16.71-9.88,31.32-12.22a70.17,70.17,0,0,1,11.12-1c12,0,20.62,3.55,30.19,7.63,9.4,4,20,8.62,36.19,11.1q3,.45,6,.78c2.71.29,5.29.49,7.77.6,15.57.67,26.06-2.2,35.9-5.74C364,16.44,374.4,11.13,390,9.53a94.52,94.52,0,0,1,13-.45,126.47,126.47,0,0,1,15.6,1.55,168.41,168.41,0,0,1,29.29,7.72c11.17,3.88,20.83,7.88,30.25,9.82a53.23,53.23,0,0,0,15.33,1.2,49.58,49.58,0,0,0,13.25-2.91c3.44-1.24,7-2.94,11.51-5l2.3-1.08c10.36-4.95,14.67-9.47,26.32-13.1,19.53-6.1,47.85-4,93.24,20.76V39.67" fill="#e9e9e9"></path><path d="M0,46.51V29.35a34.49,34.49,0,0,1,19.73-6,34.59,34.59,0,0,1,4.15.25c7,.83,10.83,3.57,14.85,5.9,1,.58,2,1.14,3.09,1.64.53.24,1.06.47,1.59.67a19.52,19.52,0,0,0,6.82,1.3c6.54.05,13.07-3.12,20.4-6.9,9.27-4.76,19.7-10.44,33.17-11.94a51.37,51.37,0,0,1,6.26-.34c11.09.09,17.71,4.15,25,8,7,3.69,14.48,7.15,27.54,7h1c13.9-.34,21.76-4.6,30.12-9.41,8.12-4.68,16.71-9.88,31.31-12.22a70.34,70.34,0,0,1,11.11-1c12,0,20.6,3.54,30.16,7.62,9.39,4,20,8.61,36.15,11.1q3,.45,6,.78c2.7.3,5.28.49,7.75.6a86.52,86.52,0,0,0,35.88-5.68c11.81-4.21,22.17-9.55,37.67-11.19a94.35,94.35,0,0,1,13-.47,124.63,124.63,0,0,1,15.59,1.53,167.43,167.43,0,0,1,29.27,7.67c11.16,3.88,20.81,7.88,30.21,9.85a53.56,53.56,0,0,0,15.31,1.28,49.18,49.18,0,0,0,13.26-2.81c3.45-1.22,7.08-2.89,11.53-5l2.3-1.08c10.38-5,14.58-9.52,26.23-13.22,19.5-6.2,47.9-4.31,93.58,20.67V39.92" fill="#eaeae9"></path><path d="M0,46.54V29.41a34.54,34.54,0,0,1,19.73-6,34.43,34.43,0,0,1,4.14.25c7,.83,10.83,3.57,14.86,5.9a33.69,33.69,0,0,0,3.09,1.64c.53.25,1,.47,1.58.67a19.57,19.57,0,0,0,6.83,1.3c6.55,0,13.08-3.12,20.41-6.89,9.27-4.77,19.69-10.45,33.17-12a51.37,51.37,0,0,1,6.26-.34c11.09.09,17.7,4.16,25,8,7,3.68,14.49,7.14,27.56,7h1c13.9-.34,21.76-4.6,30.12-9.41,8.13-4.68,16.71-9.89,31.31-12.22a69.05,69.05,0,0,1,11.1-1c12,0,20.57,3.53,30.13,7.61,9.38,4,19.94,8.61,36.11,11.1q2.94.45,6,.78,4,.45,7.74.61A86.61,86.61,0,0,0,352,20.9c11.83-4.21,22.16-9.56,37.62-11.22a93.92,93.92,0,0,1,12.94-.5,124.47,124.47,0,0,1,15.57,1.5,168.07,168.07,0,0,1,29.24,7.63c11.16,3.87,20.8,7.87,30.18,9.88a53.84,53.84,0,0,0,15.29,1.36,49.32,49.32,0,0,0,13.28-2.71c3.46-1.2,7.1-2.85,11.53-4.9l2.3-1.08c10.41-5,14.5-9.56,26.16-13.34C565.55,1.22,594,3,640,28.09V40.17" fill="#eaeaea"></path><path d="M0,46.57V29.47a34.49,34.49,0,0,1,19.74-6,34.23,34.23,0,0,1,4.12.25c7,.83,10.83,3.58,14.86,5.91,1,.58,2,1.14,3.09,1.64q.8.36,1.59.66a19.57,19.57,0,0,0,6.83,1.3c6.55,0,13.09-3.11,20.41-6.88,9.27-4.77,19.7-10.46,33.18-12a53.25,53.25,0,0,1,6.26-.33c11.08.09,17.68,4.16,25,8,7,3.68,14.5,7.13,27.57,7h1c13.9-.34,21.77-4.6,30.12-9.41,8.13-4.68,16.71-9.89,31.31-12.22a68.84,68.84,0,0,1,11.09-1c12,0,20.54,3.53,30.09,7.6,9.38,4,19.93,8.6,36.07,11.1q2.94.45,6,.79,4,.43,7.73.61A86.66,86.66,0,0,0,351.86,21c11.84-4.2,22.15-9.57,37.57-11.26a95,95,0,0,1,12.92-.52,124.52,124.52,0,0,1,15.56,1.48,166.18,166.18,0,0,1,29.22,7.59c11.14,3.85,20.77,7.85,30.14,9.9a54.53,54.53,0,0,0,15.27,1.44A49.28,49.28,0,0,0,505.83,27a116.38,116.38,0,0,0,11.55-4.85c.78-.36,1.55-.71,2.3-1.07,10.43-5,14.41-9.61,26.07-13.45,19.42-6.41,48-4.82,94.25,20.47V40.42" fill="#ebebeb"></path><path d="M0,46.6V29.53a34.54,34.54,0,0,1,19.74-6,34.23,34.23,0,0,1,4.12.25c7,.83,10.82,3.58,14.85,5.91,1,.59,2,1.14,3.1,1.64.53.24,1,.47,1.58.67a19.83,19.83,0,0,0,6.83,1.29c6.57.05,13.1-3.11,20.42-6.88,9.27-4.77,19.7-10.46,33.18-12a53.47,53.47,0,0,1,6.26-.33c11.09.09,17.68,4.17,25,8,7,3.68,14.5,7.12,27.57,7h1c13.9-.35,21.77-4.6,30.12-9.41,8.13-4.68,16.7-9.89,31.3-12.23a69.81,69.81,0,0,1,11.08-.94c11.94,0,20.51,3.52,30.06,7.59,9.37,4,19.91,8.6,36,11.09,1.95.31,3.94.57,6,.8,2.7.3,5.27.5,7.73.61a86.44,86.44,0,0,0,35.79-5.52c11.85-4.2,22.14-9.61,37.52-11.29a91.46,91.46,0,0,1,12.91-.55,126.25,126.25,0,0,1,15.54,1.45,166.05,166.05,0,0,1,29.2,7.55c11.13,3.84,20.75,7.85,30.1,9.93a54.9,54.9,0,0,0,15.25,1.52,49.39,49.39,0,0,0,13.31-2.51,112.78,112.78,0,0,0,11.56-4.79l2.3-1.07c10.45-5,14.32-9.65,26-13.57C564.8,1.28,593.46,2.72,640,28.16V40.67" fill="#ececec"></path><path d="M0,46.63V29.58a34.65,34.65,0,0,1,19.74-5.95,33.94,33.94,0,0,1,4.11.25c7,.83,10.81,3.59,14.86,5.92,1,.58,2,1.14,3.09,1.63.53.25,1.06.47,1.59.67a19.79,19.79,0,0,0,6.83,1.29c6.57,0,13.11-3.11,20.42-6.87,9.28-4.77,19.71-10.48,33.19-12a53.36,53.36,0,0,1,6.26-.33c11.08.09,17.67,4.18,25,8,7,3.67,14.51,7.11,27.59,7h1c13.9-.35,21.78-4.6,30.12-9.4,8.14-4.69,16.7-9.9,31.3-12.24a69.76,69.76,0,0,1,11.06-.94c11.93,0,20.49,3.51,30,7.58,9.36,4,19.88,8.59,36,11.09,1.95.31,3.94.57,6,.8,2.69.3,5.26.5,7.72.62a86.69,86.69,0,0,0,35.76-5.47C363.48,17,373.75,11.62,389.09,9.9A91.1,91.1,0,0,1,402,9.33a124.36,124.36,0,0,1,15.53,1.43,164.22,164.22,0,0,1,29.18,7.5c11.12,3.83,20.73,7.84,30.06,10A56.06,56.06,0,0,0,492,29.83a49.71,49.71,0,0,0,13.31-2.42,109.51,109.51,0,0,0,11.58-4.73l2.3-1.07c10.47-5,14.23-9.69,25.9-13.68C564.43,1.31,593.17,2.59,640,28.2V40.92" fill="#ececec"></path><path d="M0,46.66v-17a34.76,34.76,0,0,1,19.74-6,36,36,0,0,1,4.1.26c7,.83,10.81,3.59,14.86,5.92,1,.59,2,1.14,3.1,1.64q.8.36,1.59.66a19.79,19.79,0,0,0,6.83,1.29c6.58,0,13.11-3.1,20.42-6.86,9.28-4.78,19.71-10.49,33.2-12a53.36,53.36,0,0,1,6.26-.33c11.07.1,17.65,4.18,25,8,7,3.67,14.51,7.11,27.59,7l1,0c13.9-.34,21.78-4.59,30.12-9.39,8.14-4.69,16.7-9.9,31.3-12.24a69.54,69.54,0,0,1,11.05-.94c11.91,0,20.46,3.5,30,7.57,9.35,4,19.87,8.58,36,11.09,1.94.31,3.93.57,6,.8q4,.45,7.71.63a86.79,86.79,0,0,0,35.73-5.42c11.88-4.19,22.13-9.62,37.42-11.37a92.18,92.18,0,0,1,12.88-.59,124.23,124.23,0,0,1,15.51,1.41,164.32,164.32,0,0,1,29.16,7.46c11.11,3.81,20.71,7.82,30,10a56.4,56.4,0,0,0,15.22,1.7A49.4,49.4,0,0,0,505,27.6a101.6,101.6,0,0,0,11.59-4.68c.78-.35,1.54-.71,2.29-1.07,10.5-5,14.15-9.73,25.82-13.79C564.06,1.34,592.88,2.47,640,28.23V41.17" fill="#ededed"></path><path d="M0,46.69v-17a34.82,34.82,0,0,1,19.75-6,35.63,35.63,0,0,1,4.08.26c7,.83,10.81,3.59,14.86,5.93,1,.58,2,1.14,3.1,1.63q.8.36,1.59.66a19.88,19.88,0,0,0,6.83,1.29c6.59.05,13.13-3.1,20.44-6.86,9.28-4.77,19.71-10.49,33.19-12a51.38,51.38,0,0,1,6.26-.33c11.08.1,17.65,4.19,25,8,7,3.66,14.52,7.1,27.6,7l1,0c13.89-.34,21.78-4.6,30.11-9.39,8.15-4.69,16.7-9.9,31.3-12.24a69.42,69.42,0,0,1,11-.94c11.89,0,20.43,3.5,30,7.56,9.34,4,19.85,8.58,35.9,11.09,1.94.31,3.93.57,6,.8q4,.45,7.7.63a86.56,86.56,0,0,0,35.7-5.36c11.89-4.18,22.12-9.63,37.37-11.4a90.19,90.19,0,0,1,12.86-.62,124.16,124.16,0,0,1,15.5,1.38,165.07,165.07,0,0,1,29.14,7.42c11.09,3.8,20.68,7.82,30,10A56.94,56.94,0,0,0,491.43,30a49.31,49.31,0,0,0,13.34-2.22,97.54,97.54,0,0,0,11.6-4.62c.79-.36,1.55-.71,2.3-1.07,10.52-5,14.06-9.77,25.73-13.9,19.29-6.83,48.2-5.85,95.6,20.06V41.42" fill="#eee"></path><path d="M0,46.72v-17a34.87,34.87,0,0,1,19.75-6,35.77,35.77,0,0,1,4.08.26c7,.83,10.8,3.6,14.86,5.94a34.93,34.93,0,0,0,3.1,1.62q.8.38,1.59.66a19.79,19.79,0,0,0,6.83,1.29c6.6.06,13.13-3.09,20.44-6.85,9.28-4.78,19.72-10.5,33.2-12a53.58,53.58,0,0,1,6.26-.34c11.07.11,17.63,4.21,25,8.06,7,3.66,14.53,7.09,27.62,6.94l1,0C177.6,29,185.5,24.76,193.83,20c8.15-4.69,16.69-9.9,31.29-12.24a69.4,69.4,0,0,1,11-.94c11.88,0,20.4,3.49,29.93,7.55,9.34,4,19.84,8.57,35.86,11.09,1.94.31,3.93.57,6,.8,2.67.31,5.24.52,7.69.64a86.63,86.63,0,0,0,35.67-5.31c11.9-4.18,22.11-9.64,37.32-11.44a91.39,91.39,0,0,1,12.85-.64,122.14,122.14,0,0,1,15.48,1.36A164.11,164.11,0,0,1,446,18.21C457.11,22,466.69,26,476,28.24a57.75,57.75,0,0,0,15.19,1.86A49.36,49.36,0,0,0,504.51,28a93.49,93.49,0,0,0,11.61-4.56c.79-.36,1.55-.71,2.3-1.07,10.54-5,14-9.81,25.65-14,19.25-6.93,48.24-6.11,95.93,20V41.67" fill="#efefef"></path><path d="M0,46.75V29.82a34.92,34.92,0,0,1,19.75-6,35.45,35.45,0,0,1,4.07.26c7,.83,10.8,3.6,14.86,5.94a35,35,0,0,0,3.1,1.63q.8.36,1.59.66a20.11,20.11,0,0,0,6.84,1.28c6.6.06,13.14-3.09,20.44-6.85,9.29-4.77,19.72-10.5,33.21-12a53.46,53.46,0,0,1,6.26-.34c11.06.11,17.62,4.21,25,8.07,7,3.66,14.53,7.08,27.62,6.93l1,0c13.89-.35,21.8-4.6,30.12-9.39,8.15-4.69,16.69-9.9,31.29-12.24a69.19,69.19,0,0,1,11-.94c11.86,0,20.37,3.48,29.9,7.54,9.33,4,19.82,8.57,35.82,11.09,1.93.31,3.92.58,5.94.81q4,.45,7.69.63a86.57,86.57,0,0,0,35.64-5.25c11.91-4.17,22.1-9.64,37.27-11.48a91,91,0,0,1,12.83-.66,124.22,124.22,0,0,1,15.48,1.33,163.42,163.42,0,0,1,29.09,7.34C456.88,22,466.45,26,475.7,28.25a58.6,58.6,0,0,0,15.17,1.95,49.76,49.76,0,0,0,13.37-2,88.07,88.07,0,0,0,11.63-4.51c.79-.35,1.55-.7,2.29-1.06,10.57-5,13.89-9.86,25.57-14.14C562.94,1.43,592,2.1,640,28.33V41.92" fill="#efefef"></path><path d="M0,46.78V29.87a35.07,35.07,0,0,1,19.75-5.95,37.63,37.63,0,0,1,4.06.25c7,.84,10.79,3.61,14.86,6,1,.58,2,1.13,3.11,1.62q.8.36,1.59.66a19.87,19.87,0,0,0,6.84,1.28c6.61.06,13.14-3.09,20.44-6.84,9.29-4.78,19.73-10.51,33.21-12a53.74,53.74,0,0,1,6.27-.34c11.06.11,17.6,4.22,25,8.08,7,3.65,14.54,7.07,27.63,6.92l1,0c13.89-.35,21.8-4.6,30.12-9.38,8.16-4.7,16.69-9.91,31.29-12.25a69,69,0,0,1,11-.94c11.85,0,20.35,3.47,29.87,7.53,9.33,4,19.81,8.56,35.78,11.09,1.94.31,3.91.58,5.94.81,2.67.3,5.23.52,7.68.64A86.5,86.5,0,0,0,351,21.78c11.93-4.16,22.09-9.65,37.22-11.51a90.44,90.44,0,0,1,12.82-.69,122.17,122.17,0,0,1,15.46,1.31,162.47,162.47,0,0,1,29.07,7.29C456.64,22,466.2,26,475.44,28.26a59.47,59.47,0,0,0,15.15,2A49.77,49.77,0,0,0,504,28.36a86.11,86.11,0,0,0,11.64-4.45c.79-.35,1.55-.7,2.29-1.06,10.6-5,13.8-9.9,25.48-14.25C562.57,1.46,591.73,2,640,28.37v13.8" fill="#f0f0f0"></path><path d="M0,46.81V29.93A35.1,35.1,0,0,1,19.76,24a37.77,37.77,0,0,1,4,.25c7,.84,10.78,3.62,14.86,6,1,.58,2,1.13,3.1,1.63.53.24,1.06.46,1.59.65a20.15,20.15,0,0,0,6.84,1.28c6.62.06,13.16-3.08,20.46-6.83,9.28-4.78,19.72-10.52,33.21-12a53.58,53.58,0,0,1,6.26-.34c11.06.11,17.6,4.23,25,8.09,7,3.65,14.54,7.07,27.64,6.91l1,0c13.88-.35,21.8-4.6,30.11-9.38s16.69-9.91,31.29-12.25a70.19,70.19,0,0,1,11-1c11.83,0,20.32,3.47,29.84,7.53,9.31,4,19.78,8.56,35.74,11.09,1.93.3,3.9.58,5.93.81,2.67.31,5.22.52,7.67.65a86.57,86.57,0,0,0,35.58-5.15c11.94-4.16,22.09-9.66,37.17-11.55a90.09,90.09,0,0,1,12.8-.71,123.92,123.92,0,0,1,15.45,1.28,160.85,160.85,0,0,1,29.05,7.26c11,3.75,20.59,7.77,29.81,10.1a54.57,54.57,0,0,0,15.13,2.11,55,55,0,0,0,13.41-1.83,83.45,83.45,0,0,0,11.65-4.39c.78-.36,1.55-.7,2.29-1.06,10.62-5,13.71-9.94,25.4-14.37C562.2,1.49,591.45,1.86,640,28.4v14" fill="#f1f1f1"></path><path d="M0,46.84V30A35.15,35.15,0,0,1,19.76,24a37.58,37.58,0,0,1,4,.25c7,.84,10.78,3.62,14.86,6a33.78,33.78,0,0,0,3.11,1.62c.53.24,1.06.46,1.59.65a20.11,20.11,0,0,0,6.84,1.28c6.62.06,13.16-3.08,20.46-6.83C80,22.2,90.39,16.46,103.88,15a51.48,51.48,0,0,1,6.26-.34c11.06.11,17.59,4.23,25,8.1,7,3.64,14.55,7.06,27.65,6.9l1,0c13.88-.36,21.81-4.6,30.11-9.38S210.56,10.3,225.16,8a70.07,70.07,0,0,1,11-1c11.81,0,20.29,3.47,29.8,7.52,9.31,4,19.77,8.55,35.7,11.09,1.93.3,3.9.58,5.93.81,2.66.31,5.22.52,7.65.65A86.54,86.54,0,0,0,350.78,22c12-4.15,22.08-9.66,37.11-11.58a88.44,88.44,0,0,1,12.8-.74,121.85,121.85,0,0,1,15.43,1.26,159.93,159.93,0,0,1,29,7.21c11,3.74,20.57,7.77,29.77,10.13A55.33,55.33,0,0,0,490,30.47a54.85,54.85,0,0,0,13.42-1.73,79.59,79.59,0,0,0,11.67-4.34c.78-.35,1.55-.7,2.29-1,10.64-5,13.62-10,25.31-14.48C561.83,1.52,591.16,1.73,640,28.44V42.67" fill="#f2f1f1"></path><path d="M0,46.87V30.05A35.12,35.12,0,0,1,19.76,24.1a37.24,37.24,0,0,1,4,.25c7,.84,10.78,3.62,14.86,6,1,.58,2,1.13,3.11,1.62q.8.36,1.59.66a20.17,20.17,0,0,0,6.85,1.26c6.63.07,13.17-3.06,20.46-6.81C80,22.27,90.39,16.52,103.88,15a51.64,51.64,0,0,1,6.27-.34c11,.12,17.57,4.24,24.95,8.11,7,3.64,14.56,7.05,27.66,6.89l1,0c13.88-.36,21.82-4.6,30.12-9.38S210.57,10.36,225.17,8a70,70,0,0,1,11-.95c11.8,0,20.27,3.46,29.77,7.51,9.3,4,19.75,8.55,35.66,11.09,1.92.3,3.89.58,5.91.81q4,.47,7.65.66a86.5,86.5,0,0,0,35.53-5c12-4.15,22.07-9.67,37.06-11.62a89.37,89.37,0,0,1,12.78-.76A121.7,121.7,0,0,1,415.92,11a160.64,160.64,0,0,1,29,7.17c11,3.73,20.54,7.76,29.73,10.15a56.21,56.21,0,0,0,15.09,2.29,55.28,55.28,0,0,0,13.44-1.64,77.54,77.54,0,0,0,11.67-4.28c.79-.35,1.55-.7,2.29-1,10.67-5,13.54-10,25.24-14.6C561.46,1.55,590.87,1.61,640,28.47V42.92" fill="#f2f2f2"></path><path d="M0,46.91V30.1a35.23,35.23,0,0,1,19.76-5.94,37.24,37.24,0,0,1,4,.25c7,.84,10.76,3.63,14.86,6A33.78,33.78,0,0,0,41.76,32c.53.24,1.06.45,1.59.65a20.12,20.12,0,0,0,6.84,1.26c6.64.07,13.18-3.06,20.47-6.81,9.3-4.77,19.74-10.53,33.23-12a51.58,51.58,0,0,1,6.26-.34c11,.12,17.57,4.25,25,8.12,6.94,3.64,14.56,7,27.66,6.88l1,0c13.88-.36,21.82-4.61,30.12-9.38s16.68-9.92,31.28-12.26a70.84,70.84,0,0,1,10.95-.94c11.79,0,20.25,3.45,29.75,7.5,9.29,4,19.73,8.54,35.61,11.09,1.92.3,3.89.58,5.91.81q4,.47,7.64.67a86.74,86.74,0,0,0,35.5-5c12-4.14,22.06-9.68,37-11.66a89,89,0,0,1,12.77-.78A121.49,121.49,0,0,1,415.72,11a158.86,158.86,0,0,1,29,7.13c11,3.71,20.51,7.76,29.68,10.17a61.53,61.53,0,0,0,15.09,2.37,49.37,49.37,0,0,0,13.44-1.54,74.76,74.76,0,0,0,11.69-4.22c.79-.35,1.55-.7,2.29-1,10.69-5.05,13.45-10.07,25.15-14.71,19-7.56,48.53-7.65,98,19.36V43.17" fill="#f3f3f3"></path><path d="M0,46.94V30.16a35.32,35.32,0,0,1,19.77-5.94,37,37,0,0,1,4,.25c7,.84,10.76,3.63,14.86,6a33.78,33.78,0,0,0,3.11,1.62c.53.24,1.06.46,1.59.65A20.22,20.22,0,0,0,50.19,34c6.65.07,13.19-3.06,20.47-6.8,9.3-4.78,19.74-10.54,33.24-12a51.48,51.48,0,0,1,6.26-.34c11,.12,17.55,4.25,25,8.13,6.94,3.63,14.58,7,27.68,6.87l1,0c13.87-.37,21.82-4.61,30.11-9.38s16.68-9.92,31.27-12.26a71,71,0,0,1,10.95-.94c11.77,0,20.22,3.44,29.71,7.49,9.29,4,19.72,8.54,35.58,11.09,1.91.3,3.88.58,5.9.82q4,.46,7.63.66a86.52,86.52,0,0,0,35.47-4.93c12-4.14,22.06-9.68,37-11.69a88.61,88.61,0,0,1,12.75-.81A121.31,121.31,0,0,1,415.52,11a158.74,158.74,0,0,1,29,7.09c11,3.7,20.49,7.76,29.64,10.2a62.51,62.51,0,0,0,15.07,2.45,49.69,49.69,0,0,0,13.46-1.44,71.61,71.61,0,0,0,11.7-4.17c.79-.35,1.55-.69,2.29-1C527.36,19.05,530,14,541.71,9.27c19-7.65,48.59-7.9,98.29,19.27V43.42" fill="#f4f4f4"></path><path d="M0,47V30.22a35.37,35.37,0,0,1,19.77-5.94,36.7,36.7,0,0,1,4,.25c7,.84,10.76,3.63,14.86,6,1,.57,2,1.12,3.12,1.61.53.24,1.06.46,1.59.65A20.17,20.17,0,0,0,50.19,34c6.65.07,13.2-3.05,20.48-6.79,9.3-4.78,19.74-10.55,33.23-12a51.74,51.74,0,0,1,6.27-.34c11,.12,17.54,4.26,25,8.14,6.93,3.63,14.58,7,27.68,6.86l1,0c13.88-.37,21.83-4.61,30.11-9.37S210.6,10.54,225.19,8.2a70.93,70.93,0,0,1,10.94-.94c11.75,0,20.19,3.44,29.68,7.48,9.28,4,19.7,8.53,35.53,11.09,1.91.3,3.87.58,5.9.82q4,.47,7.62.67a86.59,86.59,0,0,0,35.44-4.88c12-4.13,22.05-9.69,36.91-11.73a88.19,88.19,0,0,1,12.73-.83A119.28,119.28,0,0,1,415.32,11a158,158,0,0,1,28.95,7c11,3.7,20.47,7.75,29.6,10.23a63.54,63.54,0,0,0,15.05,2.53,49.89,49.89,0,0,0,13.47-1.33,70.59,70.59,0,0,0,11.72-4.12c.79-.35,1.55-.69,2.28-1,10.74-5.06,13.28-10.16,25-14.94C560.35,1.65,590,1.24,640,28.57v15.1" fill="#f4f4f4"></path><path d="M0,47V30.28a35.39,35.39,0,0,1,19.77-5.94,36.52,36.52,0,0,1,4,.25c7,.84,10.76,3.64,14.87,6a33.78,33.78,0,0,0,3.11,1.62c.53.24,1.06.45,1.6.65a20.34,20.34,0,0,0,6.84,1.25c6.67.07,13.21-3.05,20.49-6.79,9.3-4.78,19.74-10.55,33.24-12a51.69,51.69,0,0,1,6.26-.34c11,.12,17.53,4.26,25,8.15,6.93,3.62,14.59,7,27.69,6.85l1,0c13.88-.37,21.84-4.61,30.11-9.37S210.61,10.6,225.2,8.26a70.7,70.7,0,0,1,10.93-.94c11.74,0,20.16,3.43,29.64,7.47,9.27,4,19.68,8.52,35.49,11.08q2.87.46,5.89.83,4,.47,7.62.68a86.7,86.7,0,0,0,35.41-4.83c12-4.13,22-9.7,36.86-11.76a86.26,86.26,0,0,1,12.72-.86,119.07,119.07,0,0,1,15.36,1.13,156.27,156.27,0,0,1,28.93,7c11,3.68,20.44,7.73,29.56,10.25a64.7,64.7,0,0,0,15,2.61,49.79,49.79,0,0,0,13.49-1.23,69.43,69.43,0,0,0,11.73-4.06c.79-.35,1.55-.69,2.28-1C526.9,19.53,529.33,14.4,541,9.54,560,1.68,589.72,1.12,640,28.61V43.92" fill="#f5f5f5"></path><path d="M0,47V30.34A35.45,35.45,0,0,1,19.77,24.4a36.52,36.52,0,0,1,4,.25c7,.84,10.75,3.64,14.86,6,1,.57,2,1.12,3.12,1.61.53.24,1.06.45,1.59.65a20.45,20.45,0,0,0,6.85,1.25c6.67.07,13.22-3,20.49-6.78C80,22.6,90.42,16.82,103.92,15.32a51.48,51.48,0,0,1,6.26-.34c11,.12,17.52,4.27,24.94,8.16,6.93,3.62,14.6,7,27.71,6.84l1,0c13.88-.37,21.84-4.61,30.12-9.37s16.67-9.93,31.26-12.27a70.66,70.66,0,0,1,10.91-.94c11.73,0,20.14,3.42,29.62,7.46,9.26,3.95,19.66,8.52,35.45,11.08q2.85.46,5.88.83c2.65.32,5.19.54,7.61.68a86.48,86.48,0,0,0,35.38-4.77c12-4.12,22-9.7,36.81-11.8a88.76,88.76,0,0,1,12.7-.88,120.65,120.65,0,0,1,15.35,1.11,156.18,156.18,0,0,1,28.91,7c10.95,3.67,20.42,7.73,29.52,10.28a65.74,65.74,0,0,0,15,2.7,49.57,49.57,0,0,0,13.5-1.14,66.55,66.55,0,0,0,11.75-4c.79-.34,1.55-.68,2.28-1C526.67,19.77,529,14.61,540.7,9.67c18.91-8,48.74-8.67,99.3,19V44.17" fill="#f6f6f6"></path><path d="M0,47.06V30.39a35.61,35.61,0,0,1,19.78-5.93,36.32,36.32,0,0,1,4,.25c7,.83,10.74,3.64,14.87,6a33.66,33.66,0,0,0,3.11,1.6c.53.24,1.07.46,1.6.65a20.45,20.45,0,0,0,6.85,1.25c6.68.07,13.22-3,20.49-6.78C80,22.66,90.43,16.88,103.92,15.37a53.74,53.74,0,0,1,6.27-.33c11,.12,17.51,4.28,24.94,8.17,6.92,3.62,14.6,7,27.71,6.83l1,0c13.87-.38,21.84-4.61,30.11-9.37s16.67-9.93,31.26-12.27a70.54,70.54,0,0,1,10.9-.94c11.71,0,20.11,3.41,29.58,7.45C275,18.84,285.35,23.4,301.11,26q2.85.47,5.88.83,4,.48,7.6.69a86.56,86.56,0,0,0,35.35-4.72c12-4.11,22-9.71,36.76-11.84a89.84,89.84,0,0,1,12.69-.9,120.52,120.52,0,0,1,15.33,1.09A155.48,155.48,0,0,1,443.61,18c10.94,3.66,20.4,7.72,29.48,10.31a66.9,66.9,0,0,0,15,2.78,49.83,49.83,0,0,0,13.52-1,64.68,64.68,0,0,0,11.75-3.95c.8-.34,1.56-.69,2.29-1,10.8-5.08,13-10.28,24.73-15.29C559.24,1.74,589.15.87,640,28.68V44.42" fill="#f7f7f7"></path><path d="M0,47.09V30.45a35.63,35.63,0,0,1,19.78-5.93,36.14,36.14,0,0,1,4,.25c7,.83,10.74,3.65,14.87,6,1,.57,2,1.12,3.11,1.61.54.24,1.07.45,1.6.64a20.45,20.45,0,0,0,6.85,1.25c6.69.07,13.24-3,20.5-6.77C80,22.73,90.43,16.94,103.93,15.43a51.58,51.58,0,0,1,6.26-.33c11,.13,17.5,4.28,24.94,8.18,6.91,3.61,14.61,7,27.72,6.82l1,0c13.87-.38,21.85-4.62,30.11-9.37s16.67-9.93,31.26-12.27a70.32,70.32,0,0,1,10.89-.94c11.69,0,20.08,3.4,29.55,7.44,9.25,4,19.63,8.51,35.37,11.08q2.83.46,5.87.83,4,.48,7.59.7a86.67,86.67,0,0,0,35.32-4.67c12.05-4.11,22-9.72,36.71-11.87a87.78,87.78,0,0,1,12.67-.93,120.16,120.16,0,0,1,15.32,1.06A154.54,154.54,0,0,1,443.39,18c10.93,3.64,20.38,7.7,29.44,10.32a67.66,67.66,0,0,0,15,2.87,49.59,49.59,0,0,0,13.53-.94,63.58,63.58,0,0,0,11.77-3.89c.8-.35,1.56-.69,2.28-1C526.21,20.26,528.32,15,540,9.94,558.87,1.77,588.86.75,640,28.71v16" fill="#f7f7f7"></path><path d="M0,47.12V30.51a35.68,35.68,0,0,1,19.78-5.93,36.29,36.29,0,0,1,4,.25c7,.83,10.73,3.65,14.86,6a32.62,32.62,0,0,0,3.12,1.6c.53.24,1.07.45,1.6.64a20.45,20.45,0,0,0,6.85,1.25c6.7.07,13.24-3,20.51-6.76C80,22.79,90.44,17,103.93,15.49a51.84,51.84,0,0,1,6.27-.33c11,.13,17.49,4.29,24.94,8.19,6.9,3.61,14.61,7,27.73,6.81l1,0c13.87-.38,21.86-4.62,30.11-9.36s16.67-10,31.26-12.28a69.08,69.08,0,0,1,10.88-.94c11.67,0,20.05,3.4,29.51,7.43,9.25,4,19.62,8.5,35.33,11.08,1.89.31,3.85.59,5.86.84,2.65.31,5.17.54,7.59.69A86.48,86.48,0,0,0,349.7,23c12.07-4.1,22-9.73,36.66-11.91A87.39,87.39,0,0,1,399,10.13a118.46,118.46,0,0,1,15.31,1A153.74,153.74,0,0,1,443.17,18c10.92,3.63,20.35,7.7,29.4,10.35a68.31,68.31,0,0,0,14.95,2.95,49.43,49.43,0,0,0,13.55-.84,60,60,0,0,0,11.78-3.84c.8-.34,1.55-.68,2.28-1C526,20.5,528,15.23,539.7,10.08,558.5,1.81,588.57.63,640,28.74V44.92" fill="#f8f8f8"></path><path d="M0,47.15V30.57a35.76,35.76,0,0,1,19.78-5.93,36,36,0,0,1,3.95.25c7,.83,10.73,3.65,14.87,6a33.66,33.66,0,0,0,3.11,1.6c.54.24,1.07.46,1.6.65a20.78,20.78,0,0,0,6.86,1.24c6.7.07,13.25-3,20.51-6.76C80,22.86,90.44,17.06,103.94,15.55a51.64,51.64,0,0,1,6.27-.33c11,.13,17.47,4.3,24.93,8.19,6.9,3.61,14.62,7,27.74,6.81l1,0c13.86-.38,21.85-4.62,30.1-9.36s16.67-9.95,31.26-12.28a68.94,68.94,0,0,1,10.86-.94c11.67,0,20,3.39,29.49,7.42,9.23,3.94,19.6,8.5,35.29,11.08q2.82.46,5.85.84,4,.48,7.58.7a86.56,86.56,0,0,0,35.26-4.56c12.08-4.1,22-9.73,36.61-11.94a85.63,85.63,0,0,1,12.64-1,118.09,118.09,0,0,1,15.3,1A152.55,152.55,0,0,1,442.94,18c10.91,3.62,20.34,7.69,29.36,10.38a70.27,70.27,0,0,0,14.95,3,49.14,49.14,0,0,0,13.55-.75,59.29,59.29,0,0,0,11.8-3.78q1.18-.51,2.28-1c10.88-5.1,12.76-10.41,24.48-15.64C558.13,1.84,588.29.51,640,28.78V45.17" fill="#f9f9f9"></path><path d="M0,47.18V30.62A35.9,35.9,0,0,1,19.79,24.7a35.61,35.61,0,0,1,3.93.25c7,.83,10.73,3.66,14.87,6,1,.57,2,1.11,3.12,1.6.53.24,1.07.45,1.6.64a20.74,20.74,0,0,0,6.86,1.24c6.71.08,13.25-3,20.51-6.75C80,22.92,90.45,17.12,104,15.61a51.58,51.58,0,0,1,6.26-.33c11,.13,17.47,4.3,24.93,8.2,6.9,3.61,14.63,7,27.75,6.8l1,0c13.86-.39,21.86-4.62,30.11-9.36S210.67,11,225.26,8.62a68.72,68.72,0,0,1,10.85-.94c11.65,0,20,3.38,29.45,7.41,9.23,3.94,19.58,8.49,35.25,11.08q2.82.46,5.85.84c2.64.32,5.16.55,7.56.71a86.51,86.51,0,0,0,35.24-4.52c12.09-4.08,22-9.73,36.55-12a86.88,86.88,0,0,1,12.64-1,116.15,116.15,0,0,1,15.28,1A150.9,150.9,0,0,1,442.72,18c10.9,3.6,20.32,7.67,29.32,10.4A71.61,71.61,0,0,0,487,31.49a49.34,49.34,0,0,0,13.57-.65,58,58,0,0,0,11.81-3.73c.79-.33,1.55-.67,2.28-1C525.53,21,527.3,15.65,539,10.35c18.74-8.48,49-10,101,18.46V45.42" fill="#f9f9f9"></path><path d="M0,47.21V30.68a35.86,35.86,0,0,1,19.79-5.92,33.46,33.46,0,0,1,3.93.25c7,.83,10.71,3.66,14.86,6a33.85,33.85,0,0,0,3.12,1.6c.54.24,1.07.45,1.6.64a20.78,20.78,0,0,0,6.86,1.24c6.72.08,13.27-3,20.52-6.75C80,23,90.45,17.18,104,15.67a51.84,51.84,0,0,1,6.27-.33c11,.13,17.45,4.31,24.93,8.21a52.76,52.76,0,0,0,27.76,6.79l1,0C177.77,29.93,185.78,25.7,194,21s16.66-10,31.25-12.29a69.83,69.83,0,0,1,10.84-.93c11.63,0,20,3.37,29.42,7.4,9.22,3.94,19.56,8.49,35.2,11.08,1.89.31,3.83.59,5.85.84q3.94.48,7.55.71c15.21,1,25.83-1.28,35.2-4.46,12.12-4.08,22-9.74,36.51-12a87.76,87.76,0,0,1,12.62-1,117.62,117.62,0,0,1,15.27,1A151.73,151.73,0,0,1,442.5,18c10.89,3.6,20.29,7.66,29.28,10.43a73.16,73.16,0,0,0,14.91,3.2A49,49,0,0,0,500.27,31a56,56,0,0,0,11.83-3.67c.79-.33,1.55-.67,2.27-1C525.3,21.23,527,15.86,538.69,10.48,557.39,1.9,587.71.26,640,28.85V45.67" fill="#fafafa"></path><path d="M0,47.24V30.74a35.92,35.92,0,0,1,19.79-5.92,35.37,35.37,0,0,1,3.92.24c7,.84,10.71,3.67,14.87,6.05,1,.57,2,1.11,3.12,1.6.53.23,1.07.44,1.6.63a20.78,20.78,0,0,0,6.86,1.24c6.72.08,13.27-3,20.52-6.74C80,23.05,90.46,17.24,104,15.73a51.84,51.84,0,0,1,6.27-.33c11,.13,17.44,4.32,24.92,8.22a52.9,52.9,0,0,0,27.77,6.78l1,0C177.78,30,185.8,25.76,194,21s16.66-9.95,31.25-12.29a69.7,69.7,0,0,1,10.83-.93c11.61,0,19.94,3.37,29.39,7.39,9.21,3.93,19.54,8.48,35.16,11.08q2.82.46,5.83.84c2.64.33,5.15.56,7.55.72,15.19,1,25.82-1.25,35.17-4.41,12.13-4.07,22-9.74,36.46-12a86,86,0,0,1,12.61-1.05,115.56,115.56,0,0,1,15.25.94,150.88,150.88,0,0,1,28.75,6.66c10.87,3.59,20.27,7.66,29.24,10.46a73.94,73.94,0,0,0,14.89,3.28,48.84,48.84,0,0,0,13.6-.45,55.27,55.27,0,0,0,11.83-3.61c.8-.34,1.56-.67,2.28-1,11-5.13,12.5-10.54,24.23-16C557,1.94,587.42.14,640,28.88v17" fill="#fbfbfb"></path><path d="M0,47.27V30.8a35.94,35.94,0,0,1,19.79-5.92,35.19,35.19,0,0,1,3.91.24c7,.84,10.71,3.68,14.87,6.05a32.62,32.62,0,0,0,3.12,1.6c.54.23,1.07.45,1.6.64a21.08,21.08,0,0,0,6.87,1.23c6.73.08,13.28-3,20.53-6.73C80,23.12,90.46,17.29,104,15.79a51.58,51.58,0,0,1,6.26-.33c11,.13,17.44,4.32,24.93,8.23a52.78,52.78,0,0,0,27.77,6.77l1,0c13.85-.39,21.87-4.62,30.1-9.34s16.66-10,31.25-12.3a69.46,69.46,0,0,1,10.81-.93c11.6,0,19.92,3.36,29.36,7.38,9.21,3.93,19.53,8.47,35.12,11.08q2.82.46,5.83.84,3.94.49,7.54.72c15.17,1,25.81-1.2,35.14-4.35,12.14-4.07,22-9.75,36.41-12.08a85.6,85.6,0,0,1,12.59-1.07,115.26,115.26,0,0,1,15.24.91,150.15,150.15,0,0,1,28.73,6.63c10.86,3.57,20.25,7.64,29.2,10.48a75.44,75.44,0,0,0,14.87,3.36,48.53,48.53,0,0,0,13.61-.35,54.07,54.07,0,0,0,11.85-3.56c.8-.33,1.56-.66,2.28-1,11-5.13,12.41-10.58,24.14-16.1C556.65,2,587.14,0,640,28.92V46.17" fill="#fcfcfc"></path><path d="M0,47.3V30.86a36,36,0,0,1,19.8-5.92,34.84,34.84,0,0,1,3.89.24c7,.84,10.71,3.68,14.87,6.06a32.75,32.75,0,0,0,3.13,1.59c.53.24,1.07.45,1.6.64a21.07,21.07,0,0,0,6.86,1.23c6.74.08,13.29-3,20.54-6.73C80,23.18,90.47,17.35,104,15.85a51.84,51.84,0,0,1,6.27-.33c11,.14,17.42,4.33,24.92,8.24A52.94,52.94,0,0,0,163,30.52l1,0c13.85-.39,21.88-4.62,30.11-9.34s16.65-10,31.24-12.3a69.34,69.34,0,0,1,10.8-.93c11.59,0,19.89,3.35,29.33,7.37,9.19,3.93,19.51,8.47,35.08,11.08q2.81.46,5.82.84,3.94.49,7.53.73c15.16,1,25.8-1.17,35.11-4.3,12.15-4.06,22-9.76,36.36-12.11a85,85,0,0,1,12.58-1.1,113.25,113.25,0,0,1,15.22.89,148.57,148.57,0,0,1,28.71,6.58c10.85,3.56,20.22,7.63,29.16,10.5a77.1,77.1,0,0,0,14.85,3.46,48.68,48.68,0,0,0,13.63-.26,52.45,52.45,0,0,0,11.86-3.5c.8-.33,1.56-.67,2.27-1,11-5.14,12.35-10.6,24.07-16.22C556.3,2,586.85-.11,640,29V46.42" fill="#fcfcfc"></path><path d="M0,47.33V30.91A36.16,36.16,0,0,1,19.8,25a35,35,0,0,1,3.89.24c7,.84,10.69,3.68,14.87,6.06,1,.57,2,1.11,3.12,1.6.54.23,1.07.44,1.61.63a21.29,21.29,0,0,0,6.86,1.23c6.75.08,13.3-3,20.54-6.72C80,23.25,90.47,17.41,104,15.91a51.84,51.84,0,0,1,6.27-.33c11,.14,17.41,4.34,24.91,8.25A53,53,0,0,0,163,30.58l1,0c13.85-.39,21.89-4.62,30.11-9.34s16.65-10,31.24-12.3A69.22,69.22,0,0,1,236.1,8c11.57,0,19.86,3.34,29.29,7.37,9.19,3.91,19.5,8.45,35,11.07,1.87.31,3.8.59,5.82.85,2.62.32,5.13.57,7.52.73,15.14,1,25.78-1.14,35.08-4.25,12.17-4.06,22-9.76,36.31-12.15a84.73,84.73,0,0,1,12.56-1.12,114.61,114.61,0,0,1,15.21.86,148.45,148.45,0,0,1,28.69,6.54c10.84,3.55,20.2,7.63,29.12,10.53A78,78,0,0,0,485.57,32a48.36,48.36,0,0,0,13.64-.16,52,52,0,0,0,11.88-3.44c.8-.33,1.55-.67,2.27-1,11-5.15,12.25-10.64,24-16.33C555.93,2.06,586.56-.23,640,29V46.67" fill="#fdfdfd"></path><path d="M0,47.36V31a36.21,36.21,0,0,1,19.8-5.91,34.81,34.81,0,0,1,3.88.24c7,.84,10.69,3.69,14.87,6.07A31.61,31.61,0,0,0,41.68,33c.53.23,1.07.45,1.6.63a21.08,21.08,0,0,0,6.87,1.23c6.75.08,13.31-3,20.54-6.72C80,23.31,90.48,17.47,104,16a51.78,51.78,0,0,1,6.26-.33c11,.14,17.4,4.34,24.92,8.26A52.91,52.91,0,0,0,163,30.63l1,0c13.86-.39,21.9-4.62,30.11-9.34s16.65-10,31.23-12.3A69.32,69.32,0,0,1,236.1,8c11.55,0,19.83,3.33,29.26,7.36,9.18,3.91,19.47,8.45,35,11.06,1.86.32,3.79.6,5.8.86,2.63.33,5.13.57,7.52.73,15.12,1,25.77-1.09,35.05-4.19,12.18-4.05,22-9.77,36.26-12.19a84.4,84.4,0,0,1,12.55-1.13,112.47,112.47,0,0,1,15.19.83,146.87,146.87,0,0,1,28.67,6.5c10.82,3.53,20.18,7.61,29.08,10.55A80.47,80.47,0,0,0,485.29,32,48.48,48.48,0,0,0,499,32a51,51,0,0,0,11.89-3.39c.8-.33,1.55-.66,2.27-1,11-5.16,12.16-10.69,23.9-16.45C555.56,2.09,586.28-.35,640,29v17.9" fill="#fefefe"></path><path d="M0,47.39V31a36.26,36.26,0,0,1,19.8-5.91,34.64,34.64,0,0,1,3.87.24c7,.84,10.69,3.69,14.87,6.07A32.75,32.75,0,0,0,41.67,33c.54.24,1.07.45,1.61.63a21.07,21.07,0,0,0,6.86,1.23c6.77.08,13.32-3,20.56-6.71C80,23.38,90.49,17.53,104,16a51.94,51.94,0,0,1,6.27-.33c11,.14,17.39,4.35,24.91,8.27A53.07,53.07,0,0,0,163,30.69l1,0c13.85-.4,21.89-4.62,30.1-9.34s16.65-10,31.23-12.3a69.18,69.18,0,0,1,10.77-.93c11.54,0,19.81,3.33,29.23,7.35,9.18,3.91,19.46,8.44,35,11.06,1.86.32,3.79.6,5.8.86,2.62.33,5.12.57,7.51.74,15.11,1.05,25.76-1.06,35-4.14,12.19-4,21.95-9.78,36.21-12.22a81.36,81.36,0,0,1,12.53-1.16,110.65,110.65,0,0,1,15.18.81,146.78,146.78,0,0,1,28.65,6.45c10.81,3.52,20.15,7.6,29,10.58a82,82,0,0,0,14.8,3.7,48.14,48.14,0,0,0,13.67,0,49.7,49.7,0,0,0,11.91-3.33c.8-.33,1.55-.66,2.27-1,11.06-5.16,12.07-10.74,23.81-16.56C555.19,2.11,586-.48,640,29.05V47.17" fill="#fefefe"></path><path d="M0,31.09a36,36,0,0,1,23.67-5.67c8.67,1,12.24,5.17,18,7.67,19.16,8.31,34.08-13.86,62.33-17,26.73-3,28.89,15.13,59,14.66,28.67-.44,32.9-16.95,62.33-21.66C258,3.86,265.05,22.22,306,27.42c52.75,6.71,55.72-21.9,106.33-16,45.2,5.27,66,30.77,98,17.67,13.29-5.44,13.51-11.39,26-17.67C554.81,2.14,585.7-.6,640,29.09V47.42H0Z" fill="#fff"></path></svg>